<?xml version="1.0" encoding="utf-8" standalone="no"?>
<!DOCTYPE svg PUBLIC "-//W3C//DTD SVG 1.1//EN"
  "http://www.w3.org/Graphics/SVG/1.1/DTD/svg11.dtd">
<svg xmlns:xlink="http://www.w3.org/1999/xlink" width="575.28pt" height="504.72pt" viewBox="0 0 575.28 504.72" xmlns="http://www.w3.org/2000/svg" version="1.1">
 <metadata>
  <rdf:RDF xmlns:dc="http://purl.org/dc/elements/1.1/" xmlns:cc="http://creativecommons.org/ns#" xmlns:rdf="http://www.w3.org/1999/02/22-rdf-syntax-ns#">
   <cc:Work>
    <dc:type rdf:resource="http://purl.org/dc/dcmitype/StillImage"/>
    <dc:date>2025-06-25T09:25:56.542270</dc:date>
    <dc:format>image/svg+xml</dc:format>
    <dc:creator>
     <cc:Agent>
      <dc:title>Matplotlib v3.5.3, https://matplotlib.org/</dc:title>
     </cc:Agent>
    </dc:creator>
   </cc:Work>
  </rdf:RDF>
 </metadata>
 <defs>
  <style type="text/css">*{stroke-linejoin: round; stroke-linecap: butt}</style>
 </defs>
 <g id="figure_1">
  <g id="patch_1">
   <path d="M 0 504.72 
L 575.28 504.72 
L 575.28 0 
L 0 0 
z
" style="fill: #ffffff"/>
  </g>
  <g id="axes_1">
   <g id="patch_2">
    <path d="M 71.91 174.870635 
L 517.752 174.870635 
L 517.752 60.5664 
L 71.91 60.5664 
z
" style="fill: #ffffff"/>
   </g>
   <g id="matplotlib.axis_1">
    <g id="xtick_1">
     <g id="line2d_1">
      <defs>
       <path id="mb20c3611bf" d="M 0 0 
L 0 3.5 
" style="stroke: #000000; stroke-width: 0.8"/>
      </defs>
      <g>
       <use xlink:href="#mb20c3611bf" x="71.91" y="174.870635" style="stroke: #000000; stroke-width: 0.8"/>
      </g>
     </g>
    </g>
    <g id="xtick_2">
     <g id="line2d_2">
      <g>
       <use xlink:href="#mb20c3611bf" x="161.0784" y="174.870635" style="stroke: #000000; stroke-width: 0.8"/>
      </g>
     </g>
    </g>
    <g id="xtick_3">
     <g id="line2d_3">
      <g>
       <use xlink:href="#mb20c3611bf" x="250.2468" y="174.870635" style="stroke: #000000; stroke-width: 0.8"/>
      </g>
     </g>
    </g>
    <g id="xtick_4">
     <g id="line2d_4">
      <g>
       <use xlink:href="#mb20c3611bf" x="339.4152" y="174.870635" style="stroke: #000000; stroke-width: 0.8"/>
      </g>
     </g>
    </g>
    <g id="xtick_5">
     <g id="line2d_5">
      <g>
       <use xlink:href="#mb20c3611bf" x="428.5836" y="174.870635" style="stroke: #000000; stroke-width: 0.8"/>
      </g>
     </g>
    </g>
    <g id="xtick_6">
     <g id="line2d_6">
      <g>
       <use xlink:href="#mb20c3611bf" x="517.752" y="174.870635" style="stroke: #000000; stroke-width: 0.8"/>
      </g>
     </g>
    </g>
   </g>
   <g id="matplotlib.axis_2">
    <g id="ytick_1">
     <g id="line2d_7">
      <defs>
       <path id="m41beafad07" d="M 0 0 
L -3.5 0 
" style="stroke: #000000; stroke-width: 0.8"/>
      </defs>
      <g>
       <use xlink:href="#m41beafad07" x="71.91" y="174.870635" style="stroke: #000000; stroke-width: 0.8"/>
      </g>
     </g>
     <g id="text_1">
      <!-- 0.0 -->
      <g transform="translate(49.006875 178.669854)scale(0.1 -0.1)">
       <defs>
        <path id="DejaVuSans-30" d="M 2034 4250 
Q 1547 4250 1301 3770 
Q 1056 3291 1056 2328 
Q 1056 1369 1301 889 
Q 1547 409 2034 409 
Q 2525 409 2770 889 
Q 3016 1369 3016 2328 
Q 3016 3291 2770 3770 
Q 2525 4250 2034 4250 
z
M 2034 4750 
Q 2819 4750 3233 4129 
Q 3647 3509 3647 2328 
Q 3647 1150 3233 529 
Q 2819 -91 2034 -91 
Q 1250 -91 836 529 
Q 422 1150 422 2328 
Q 422 3509 836 4129 
Q 1250 4750 2034 4750 
z
" transform="scale(0.015625)"/>
        <path id="DejaVuSans-2e" d="M 684 794 
L 1344 794 
L 1344 0 
L 684 0 
L 684 794 
z
" transform="scale(0.015625)"/>
       </defs>
       <use xlink:href="#DejaVuSans-30"/>
       <use xlink:href="#DejaVuSans-2e" x="63.623047"/>
       <use xlink:href="#DejaVuSans-30" x="95.410156"/>
      </g>
     </g>
    </g>
    <g id="ytick_2">
     <g id="line2d_8">
      <g>
       <use xlink:href="#m41beafad07" x="71.91" y="136.769224" style="stroke: #000000; stroke-width: 0.8"/>
      </g>
     </g>
     <g id="text_2">
      <!-- 0.5 -->
      <g transform="translate(49.006875 140.568442)scale(0.1 -0.1)">
       <defs>
        <path id="DejaVuSans-35" d="M 691 4666 
L 3169 4666 
L 3169 4134 
L 1269 4134 
L 1269 2991 
Q 1406 3038 1543 3061 
Q 1681 3084 1819 3084 
Q 2600 3084 3056 2656 
Q 3513 2228 3513 1497 
Q 3513 744 3044 326 
Q 2575 -91 1722 -91 
Q 1428 -91 1123 -41 
Q 819 9 494 109 
L 494 744 
Q 775 591 1075 516 
Q 1375 441 1709 441 
Q 2250 441 2565 725 
Q 2881 1009 2881 1497 
Q 2881 1984 2565 2268 
Q 2250 2553 1709 2553 
Q 1456 2553 1204 2497 
Q 953 2441 691 2322 
L 691 4666 
z
" transform="scale(0.015625)"/>
       </defs>
       <use xlink:href="#DejaVuSans-30"/>
       <use xlink:href="#DejaVuSans-2e" x="63.623047"/>
       <use xlink:href="#DejaVuSans-35" x="95.410156"/>
      </g>
     </g>
    </g>
    <g id="ytick_3">
     <g id="line2d_9">
      <g>
       <use xlink:href="#m41beafad07" x="71.91" y="98.667812" style="stroke: #000000; stroke-width: 0.8"/>
      </g>
     </g>
     <g id="text_3">
      <!-- 1.0 -->
      <g transform="translate(49.006875 102.467031)scale(0.1 -0.1)">
       <defs>
        <path id="DejaVuSans-31" d="M 794 531 
L 1825 531 
L 1825 4091 
L 703 3866 
L 703 4441 
L 1819 4666 
L 2450 4666 
L 2450 531 
L 3481 531 
L 3481 0 
L 794 0 
L 794 531 
z
" transform="scale(0.015625)"/>
       </defs>
       <use xlink:href="#DejaVuSans-31"/>
       <use xlink:href="#DejaVuSans-2e" x="63.623047"/>
       <use xlink:href="#DejaVuSans-30" x="95.410156"/>
      </g>
     </g>
    </g>
    <g id="ytick_4">
     <g id="line2d_10">
      <g>
       <use xlink:href="#m41beafad07" x="71.91" y="60.5664" style="stroke: #000000; stroke-width: 0.8"/>
      </g>
     </g>
     <g id="text_4">
      <!-- 1.5 -->
      <g transform="translate(49.006875 64.365619)scale(0.1 -0.1)">
       <use xlink:href="#DejaVuSans-31"/>
       <use xlink:href="#DejaVuSans-2e" x="63.623047"/>
       <use xlink:href="#DejaVuSans-35" x="95.410156"/>
      </g>
     </g>
    </g>
   </g>
   <g id="line2d_11">
    <path d="M 0 0 
" clip-path="url(#p49576403b9)" style="fill: none; stroke: #0000ff; stroke-linecap: square"/>
   </g>
   <g id="line2d_12">
    <path d="M -1 165.134497 
L 12.614973 165.423556 
L 38.024212 165.73955 
L 71.971227 165.986939 
L 71.971227 165.986939 
" clip-path="url(#p49576403b9)" style="fill: none; stroke: #0000ff; stroke-linecap: square"/>
   </g>
   <g id="line2d_13">
    <path d="M 71.971227 165.98677 
L 98.707053 166.096051 
L 103.163023 105.425353 
L 107.618994 102.880551 
L 112.074965 140.060885 
L 116.530936 163.150063 
L 120.986907 164.18783 
L 125.442878 164.600023 
L 134.388835 165.004855 
L 147.756748 165.358631 
L 170.036602 165.703007 
L 205.718385 166.001371 
L 227.998239 166.115566 
L 232.45421 120.588993 
L 236.910181 103.88482 
L 241.366152 102.298307 
L 245.822123 161.928422 
L 250.278094 163.791177 
L 254.734065 164.443308 
L 259.190036 164.767898 
L 268.101978 165.13551 
L 285.959876 165.553088 
L 312.695702 165.895126 
L 357.289426 166.239527 
L 361.745397 107.112145 
L 366.201368 103.448575 
L 370.657339 112.450902 
L 375.11331 162.696836 
L 379.569281 164.098756 
L 384.025251 164.638301 
L 392.937193 165.121708 
L 406.305106 165.507856 
L 428.618976 165.887585 
L 464.266743 166.200791 
L 473.178685 166.25377 
L 477.668671 137.641807 
L 482.090627 104.415716 
L 486.546598 102.55069 
L 491.036584 161.353124 
L 495.492554 163.726742 
L 499.948525 164.488913 
L 504.404496 164.851319 
L 513.316438 165.251593 
L 531.140322 165.708018 
L 557.910162 166.065255 
L 576.28 166.219142 
L 576.28 166.219142 
" clip-path="url(#p49576403b9)" style="fill: none; stroke: #0000ff; stroke-linecap: square"/>
   </g>
   <g id="line2d_14">
    <path d="M 0 0 
" clip-path="url(#p49576403b9)" style="fill: none; stroke: #ff4500; stroke-linecap: square"/>
   </g>
   <g id="line2d_15">
    <path d="M -1 150.975072 
L 4.145227 129.791738 
L 12.614973 116.197088 
L 21.08472 162.432525 
L 29.588481 163.657229 
L 38.058227 164.081786 
L 54.99772 164.427593 
L 71.971227 164.655856 
L 71.971227 164.655856 
" clip-path="url(#p49576403b9)" style="fill: none; stroke: #ff4500; stroke-linecap: square"/>
   </g>
   <g id="line2d_16">
    <path d="M 71.937212 164.656344 
L 161.090645 165.191239 
L 163.335638 135.381053 
L 165.546616 119.913559 
L 167.791609 118.385621 
L 170.002587 117.402064 
L 172.24758 116.713491 
L 176.703551 161.153708 
L 178.948544 162.272215 
L 181.159522 162.925451 
L 183.404515 163.354849 
L 187.860486 163.881137 
L 194.527435 164.300315 
L 203.439377 164.598288 
L 219.052282 164.86677 
L 250.278094 165.128594 
L 270.312955 165.226944 
L 272.557948 156.784177 
L 274.768926 121.422821 
L 277.013919 119.063098 
L 279.258912 117.826618 
L 281.46989 116.993249 
L 283.714883 118.077216 
L 285.925861 154.68505 
L 288.170854 161.697192 
L 290.381832 162.592594 
L 292.626825 163.14736 
L 297.082796 163.788325 
L 301.538767 164.146197 
L 308.239731 164.465316 
L 319.362651 164.751666 
L 337.186534 164.976791 
L 348.343469 165.030099 
L 399.604142 165.282259 
L 401.849135 157.581631 
L 404.060113 121.593066 
L 406.305106 119.184071 
L 408.516084 117.928864 
L 410.761077 117.081351 
L 413.00607 117.473247 
L 415.217048 153.955435 
L 417.462041 161.75083 
L 419.673019 162.650901 
L 421.918012 163.204043 
L 426.373983 163.839141 
L 430.829954 164.195111 
L 437.496902 164.509516 
L 448.653837 164.789211 
L 468.722714 165.031088 
L 511.071445 165.282659 
L 517.772409 165.349782 
L 517.772409 165.349782 
" clip-path="url(#p49576403b9)" style="fill: none; stroke: #ff4500; stroke-linecap: square"/>
   </g>
   <g id="line2d_17">
    <path d="M 0 0 
" clip-path="url(#p49576403b9)" style="fill: none; stroke: #8b008b; stroke-linecap: square"/>
   </g>
   <g id="line2d_18">
    <path d="M -1 164.437051 
L 29.554466 164.792202 
L 54.963704 164.994564 
L 71.971227 165.081509 
L 71.971227 165.081509 
" clip-path="url(#p49576403b9)" style="fill: none; stroke: #8b008b; stroke-linecap: square"/>
   </g>
   <g id="line2d_19">
    <path d="M 71.971227 165.081331 
L 89.795111 165.147704 
L 98.707053 90.446715 
L 107.618994 100.826049 
L 116.530936 162.352464 
L 125.476893 163.346459 
L 134.35482 163.767451 
L 152.212719 164.294849 
L 178.948544 164.731918 
L 205.68437 164.936401 
L 250.278094 165.149658 
L 259.190036 85.807319 
L 268.135993 160.7792 
L 277.047934 163.072218 
L 285.959876 163.658269 
L 294.871818 164.016091 
L 321.641659 164.586925 
L 348.377484 164.919067 
L 392.971208 165.197845 
L 401.849135 89.111855 
L 410.795092 120.619511 
L 419.707034 162.544873 
L 428.618976 163.472971 
L 437.530917 163.898748 
L 455.354801 164.424322 
L 482.124642 164.853506 
L 517.806424 165.174842 
L 535.630308 165.280543 
L 544.54225 86.02372 
L 553.454191 160.572387 
L 562.366133 163.085608 
L 571.278075 163.712433 
L 576.28 163.922579 
L 576.28 163.922579 
" clip-path="url(#p49576403b9)" style="fill: none; stroke: #8b008b; stroke-linecap: square"/>
   </g>
   <g id="patch_3">
    <path d="M 71.91 174.870635 
L 71.91 60.5664 
" style="fill: none; stroke: #000000; stroke-width: 0.8; stroke-linejoin: miter; stroke-linecap: square"/>
   </g>
   <g id="patch_4">
    <path d="M 517.752 174.870635 
L 517.752 60.5664 
" style="fill: none; stroke: #000000; stroke-width: 0.8; stroke-linejoin: miter; stroke-linecap: square"/>
   </g>
   <g id="patch_5">
    <path d="M 71.91 174.870635 
L 517.752 174.870635 
" style="fill: none; stroke: #000000; stroke-width: 0.8; stroke-linejoin: miter; stroke-linecap: square"/>
   </g>
   <g id="patch_6">
    <path d="M 71.91 60.5664 
L 517.752 60.5664 
" style="fill: none; stroke: #000000; stroke-width: 0.8; stroke-linejoin: miter; stroke-linecap: square"/>
   </g>
   <g id="text_5">
    <!-- $\chi_{ELM}  (m^2/s)$ -->
    <g transform="translate(258.501 54.5664)scale(0.14 -0.14)">
     <defs>
      <path id="DejaVuSans-Oblique-3c7" d="M 1922 -781 
L 1691 416 
L 394 -1334 
L -284 -1334 
L 1553 1141 
L 1269 2613 
Q 1194 3006 713 3006 
L 559 3006 
L 653 3500 
L 872 3494 
Q 1675 3472 1775 2950 
L 2006 1753 
L 3303 3503 
L 3981 3503 
L 2144 1028 
L 2428 -444 
Q 2503 -838 2984 -838 
L 3138 -838 
L 3044 -1331 
L 2825 -1325 
Q 2022 -1303 1922 -781 
z
" transform="scale(0.015625)"/>
      <path id="DejaVuSans-Oblique-45" d="M 1081 4666 
L 4031 4666 
L 3928 4134 
L 1606 4134 
L 1338 2753 
L 3566 2753 
L 3463 2222 
L 1234 2222 
L 909 531 
L 3284 531 
L 3181 0 
L 172 0 
L 1081 4666 
z
" transform="scale(0.015625)"/>
      <path id="DejaVuSans-Oblique-4c" d="M 1075 4666 
L 1709 4666 
L 909 525 
L 3181 525 
L 3078 0 
L 172 0 
L 1075 4666 
z
" transform="scale(0.015625)"/>
      <path id="DejaVuSans-Oblique-4d" d="M 1081 4666 
L 2028 4666 
L 2572 1522 
L 4378 4666 
L 5350 4666 
L 4441 0 
L 3828 0 
L 4622 4091 
L 2791 897 
L 2175 897 
L 1581 4103 
L 788 0 
L 172 0 
L 1081 4666 
z
" transform="scale(0.015625)"/>
      <path id="DejaVuSans-28" d="M 1984 4856 
Q 1566 4138 1362 3434 
Q 1159 2731 1159 2009 
Q 1159 1288 1364 580 
Q 1569 -128 1984 -844 
L 1484 -844 
Q 1016 -109 783 600 
Q 550 1309 550 2009 
Q 550 2706 781 3412 
Q 1013 4119 1484 4856 
L 1984 4856 
z
" transform="scale(0.015625)"/>
      <path id="DejaVuSans-Oblique-6d" d="M 5747 2113 
L 5338 0 
L 4763 0 
L 5166 2094 
Q 5191 2228 5203 2325 
Q 5216 2422 5216 2491 
Q 5216 2772 5059 2928 
Q 4903 3084 4622 3084 
Q 4203 3084 3875 2770 
Q 3547 2456 3450 1953 
L 3066 0 
L 2491 0 
L 2900 2094 
Q 2925 2209 2937 2307 
Q 2950 2406 2950 2484 
Q 2950 2769 2794 2926 
Q 2638 3084 2363 3084 
Q 1938 3084 1609 2770 
Q 1281 2456 1184 1953 
L 800 0 
L 225 0 
L 909 3500 
L 1484 3500 
L 1375 2956 
Q 1609 3263 1923 3423 
Q 2238 3584 2597 3584 
Q 2978 3584 3223 3384 
Q 3469 3184 3519 2828 
Q 3781 3197 4126 3390 
Q 4472 3584 4856 3584 
Q 5306 3584 5551 3325 
Q 5797 3066 5797 2591 
Q 5797 2488 5784 2364 
Q 5772 2241 5747 2113 
z
" transform="scale(0.015625)"/>
      <path id="DejaVuSans-32" d="M 1228 531 
L 3431 531 
L 3431 0 
L 469 0 
L 469 531 
Q 828 903 1448 1529 
Q 2069 2156 2228 2338 
Q 2531 2678 2651 2914 
Q 2772 3150 2772 3378 
Q 2772 3750 2511 3984 
Q 2250 4219 1831 4219 
Q 1534 4219 1204 4116 
Q 875 4013 500 3803 
L 500 4441 
Q 881 4594 1212 4672 
Q 1544 4750 1819 4750 
Q 2544 4750 2975 4387 
Q 3406 4025 3406 3419 
Q 3406 3131 3298 2873 
Q 3191 2616 2906 2266 
Q 2828 2175 2409 1742 
Q 1991 1309 1228 531 
z
" transform="scale(0.015625)"/>
      <path id="DejaVuSans-2f" d="M 1625 4666 
L 2156 4666 
L 531 -594 
L 0 -594 
L 1625 4666 
z
" transform="scale(0.015625)"/>
      <path id="DejaVuSans-Oblique-73" d="M 3200 3397 
L 3091 2853 
Q 2863 2978 2609 3040 
Q 2356 3103 2088 3103 
Q 1634 3103 1373 2948 
Q 1113 2794 1113 2528 
Q 1113 2219 1719 2053 
Q 1766 2041 1788 2034 
L 1972 1978 
Q 2547 1819 2739 1644 
Q 2931 1469 2931 1166 
Q 2931 609 2489 259 
Q 2047 -91 1331 -91 
Q 1053 -91 747 -37 
Q 441 16 72 128 
L 184 722 
Q 500 559 806 475 
Q 1113 391 1394 391 
Q 1816 391 2080 572 
Q 2344 753 2344 1031 
Q 2344 1331 1650 1516 
L 1591 1531 
L 1394 1581 
Q 956 1697 753 1886 
Q 550 2075 550 2369 
Q 550 2928 970 3256 
Q 1391 3584 2113 3584 
Q 2397 3584 2667 3537 
Q 2938 3491 3200 3397 
z
" transform="scale(0.015625)"/>
      <path id="DejaVuSans-29" d="M 513 4856 
L 1013 4856 
Q 1481 4119 1714 3412 
Q 1947 2706 1947 2009 
Q 1947 1309 1714 600 
Q 1481 -109 1013 -844 
L 513 -844 
Q 928 -128 1133 580 
Q 1338 1288 1338 2009 
Q 1338 2731 1133 3434 
Q 928 4138 513 4856 
z
" transform="scale(0.015625)"/>
     </defs>
     <use xlink:href="#DejaVuSans-Oblique-3c7" transform="translate(0 0.765625)"/>
     <use xlink:href="#DejaVuSans-Oblique-45" transform="translate(59.179688 -15.640625)scale(0.7)"/>
     <use xlink:href="#DejaVuSans-Oblique-4c" transform="translate(103.408203 -15.640625)scale(0.7)"/>
     <use xlink:href="#DejaVuSans-Oblique-4d" transform="translate(142.407227 -15.640625)scale(0.7)"/>
     <use xlink:href="#DejaVuSans-28" transform="translate(205.537109 0.765625)"/>
     <use xlink:href="#DejaVuSans-Oblique-6d" transform="translate(244.550781 0.765625)"/>
     <use xlink:href="#DejaVuSans-32" transform="translate(346.612786 39.046875)scale(0.7)"/>
     <use xlink:href="#DejaVuSans-2f" transform="translate(393.883294 0.765625)"/>
     <use xlink:href="#DejaVuSans-Oblique-73" transform="translate(427.574701 0.765625)"/>
     <use xlink:href="#DejaVuSans-29" transform="translate(479.67431 0.765625)"/>
    </g>
   </g>
  </g>
  <g id="axes_2">
   <g id="patch_7">
    <path d="M 71.91 312.035718 
L 517.752 312.035718 
L 517.752 197.731482 
L 71.91 197.731482 
z
" style="fill: #ffffff"/>
   </g>
   <g id="matplotlib.axis_3">
    <g id="xtick_7">
     <g id="line2d_20">
      <g>
       <use xlink:href="#mb20c3611bf" x="71.91" y="312.035718" style="stroke: #000000; stroke-width: 0.8"/>
      </g>
     </g>
    </g>
    <g id="xtick_8">
     <g id="line2d_21">
      <g>
       <use xlink:href="#mb20c3611bf" x="161.0784" y="312.035718" style="stroke: #000000; stroke-width: 0.8"/>
      </g>
     </g>
    </g>
    <g id="xtick_9">
     <g id="line2d_22">
      <g>
       <use xlink:href="#mb20c3611bf" x="250.2468" y="312.035718" style="stroke: #000000; stroke-width: 0.8"/>
      </g>
     </g>
    </g>
    <g id="xtick_10">
     <g id="line2d_23">
      <g>
       <use xlink:href="#mb20c3611bf" x="339.4152" y="312.035718" style="stroke: #000000; stroke-width: 0.8"/>
      </g>
     </g>
    </g>
    <g id="xtick_11">
     <g id="line2d_24">
      <g>
       <use xlink:href="#mb20c3611bf" x="428.5836" y="312.035718" style="stroke: #000000; stroke-width: 0.8"/>
      </g>
     </g>
    </g>
    <g id="xtick_12">
     <g id="line2d_25">
      <g>
       <use xlink:href="#mb20c3611bf" x="517.752" y="312.035718" style="stroke: #000000; stroke-width: 0.8"/>
      </g>
     </g>
    </g>
   </g>
   <g id="matplotlib.axis_4">
    <g id="ytick_5">
     <g id="line2d_26">
      <g>
       <use xlink:href="#m41beafad07" x="71.91" y="312.035718" style="stroke: #000000; stroke-width: 0.8"/>
      </g>
     </g>
     <g id="text_6">
      <!-- 0.0 -->
      <g transform="translate(49.006875 315.834936)scale(0.1 -0.1)">
       <use xlink:href="#DejaVuSans-30"/>
       <use xlink:href="#DejaVuSans-2e" x="63.623047"/>
       <use xlink:href="#DejaVuSans-30" x="95.410156"/>
      </g>
     </g>
    </g>
    <g id="ytick_6">
     <g id="line2d_27">
      <g>
       <use xlink:href="#m41beafad07" x="71.91" y="289.174871" style="stroke: #000000; stroke-width: 0.8"/>
      </g>
     </g>
     <g id="text_7">
      <!-- 0.5 -->
      <g transform="translate(49.006875 292.974089)scale(0.1 -0.1)">
       <use xlink:href="#DejaVuSans-30"/>
       <use xlink:href="#DejaVuSans-2e" x="63.623047"/>
       <use xlink:href="#DejaVuSans-35" x="95.410156"/>
      </g>
     </g>
    </g>
    <g id="ytick_7">
     <g id="line2d_28">
      <g>
       <use xlink:href="#m41beafad07" x="71.91" y="266.314024" style="stroke: #000000; stroke-width: 0.8"/>
      </g>
     </g>
     <g id="text_8">
      <!-- 1.0 -->
      <g transform="translate(49.006875 270.113242)scale(0.1 -0.1)">
       <use xlink:href="#DejaVuSans-31"/>
       <use xlink:href="#DejaVuSans-2e" x="63.623047"/>
       <use xlink:href="#DejaVuSans-30" x="95.410156"/>
      </g>
     </g>
    </g>
    <g id="ytick_8">
     <g id="line2d_29">
      <g>
       <use xlink:href="#m41beafad07" x="71.91" y="243.453176" style="stroke: #000000; stroke-width: 0.8"/>
      </g>
     </g>
     <g id="text_9">
      <!-- 1.5 -->
      <g transform="translate(49.006875 247.252395)scale(0.1 -0.1)">
       <use xlink:href="#DejaVuSans-31"/>
       <use xlink:href="#DejaVuSans-2e" x="63.623047"/>
       <use xlink:href="#DejaVuSans-35" x="95.410156"/>
      </g>
     </g>
    </g>
    <g id="ytick_9">
     <g id="line2d_30">
      <g>
       <use xlink:href="#m41beafad07" x="71.91" y="220.592329" style="stroke: #000000; stroke-width: 0.8"/>
      </g>
     </g>
     <g id="text_10">
      <!-- 2.0 -->
      <g transform="translate(49.006875 224.391548)scale(0.1 -0.1)">
       <use xlink:href="#DejaVuSans-32"/>
       <use xlink:href="#DejaVuSans-2e" x="63.623047"/>
       <use xlink:href="#DejaVuSans-30" x="95.410156"/>
      </g>
     </g>
    </g>
    <g id="ytick_10">
     <g id="line2d_31">
      <g>
       <use xlink:href="#m41beafad07" x="71.91" y="197.731482" style="stroke: #000000; stroke-width: 0.8"/>
      </g>
     </g>
     <g id="text_11">
      <!-- 2.5 -->
      <g transform="translate(49.006875 201.530701)scale(0.1 -0.1)">
       <use xlink:href="#DejaVuSans-32"/>
       <use xlink:href="#DejaVuSans-2e" x="63.623047"/>
       <use xlink:href="#DejaVuSans-35" x="95.410156"/>
      </g>
     </g>
    </g>
    <g id="text_12">
     <!-- 1e21 -->
     <g transform="translate(71.91 194.731482)scale(0.1 -0.1)">
      <defs>
       <path id="DejaVuSans-65" d="M 3597 1894 
L 3597 1613 
L 953 1613 
Q 991 1019 1311 708 
Q 1631 397 2203 397 
Q 2534 397 2845 478 
Q 3156 559 3463 722 
L 3463 178 
Q 3153 47 2828 -22 
Q 2503 -91 2169 -91 
Q 1331 -91 842 396 
Q 353 884 353 1716 
Q 353 2575 817 3079 
Q 1281 3584 2069 3584 
Q 2775 3584 3186 3129 
Q 3597 2675 3597 1894 
z
M 3022 2063 
Q 3016 2534 2758 2815 
Q 2500 3097 2075 3097 
Q 1594 3097 1305 2825 
Q 1016 2553 972 2059 
L 3022 2063 
z
" transform="scale(0.015625)"/>
      </defs>
      <use xlink:href="#DejaVuSans-31"/>
      <use xlink:href="#DejaVuSans-65" x="63.623047"/>
      <use xlink:href="#DejaVuSans-32" x="125.146484"/>
      <use xlink:href="#DejaVuSans-31" x="188.769531"/>
     </g>
    </g>
   </g>
   <g id="line2d_32">
    <path d="M 71.461001 310.78356 
L 98.945158 310.735253 
L 99.863564 310.363486 
L 101.258181 306.607597 
L 101.904467 299.682116 
L 102.414693 290.56268 
L 103.163023 283.763419 
L 104.251505 277.935881 
L 104.829761 276.308271 
L 105.374001 274.125984 
L 105.952257 273.504216 
L 106.462483 271.726406 
L 106.972709 271.469482 
L 107.550964 270.421878 
L 108.06119 270.70002 
L 108.299295 270.520365 
L 108.571416 269.235408 
L 109.659897 268.963447 
L 110.238153 268.503326 
L 110.782394 268.783402 
L 111.326634 270.033367 
L 112.551176 278.955655 
L 113.197462 287.687008 
L 114.626094 299.670996 
L 116.224801 305.931067 
L 117.959568 308.794951 
L 119.762366 309.846955 
L 123.572051 310.383157 
L 130.57915 310.704092 
L 136.701858 310.829181 
L 143.981078 310.882383 
L 230.311262 310.768773 
L 231.297699 310.476976 
L 232.080045 309.127805 
L 233.270571 304.573097 
L 234.052917 291.094924 
L 234.325038 287.793312 
L 235.855715 278.220021 
L 236.43397 276.152498 
L 236.910181 275.330191 
L 237.454422 273.259103 
L 237.998663 272.834426 
L 238.508888 271.289161 
L 239.053129 271.086472 
L 239.59737 269.860613 
L 240.107595 269.893301 
L 240.617821 269.244896 
L 241.196077 269.346669 
L 241.740318 268.623888 
L 242.318573 268.846936 
L 242.862814 270.287887 
L 243.44107 272.99199 
L 245.379927 293.691461 
L 246.910604 302.933877 
L 248.543327 307.524692 
L 250.312109 309.429686 
L 252.148921 310.040151 
L 257.013073 310.504923 
L 260.006397 310.657135 
L 276.503694 310.898273 
L 341.132279 310.812968 
L 358.956163 310.783725 
L 359.874569 310.018105 
L 360.588885 308.380217 
L 361.235171 305.904379 
L 361.643352 302.849268 
L 362.119562 293.009119 
L 363.105999 284.227123 
L 363.650239 280.314801 
L 365.316977 274.532436 
L 365.895232 272.911022 
L 366.405458 272.406659 
L 366.915684 271.196175 
L 367.493939 271.086665 
L 368.004165 269.668828 
L 369.092647 269.441916 
L 370.181128 268.793987 
L 370.725369 269.153668 
L 371.33764 271.316779 
L 371.915895 274.586571 
L 372.528166 281.82537 
L 373.208467 288.190777 
L 373.888768 295.892944 
L 375.419445 304.041654 
L 375.929671 305.123288 
L 376.235806 306.05807 
L 377.086182 308.04376 
L 378.922995 309.609557 
L 380.759807 310.097545 
L 386.610395 310.602334 
L 402.665496 310.904428 
L 409.29843 310.932012 
L 427.054284 310.942766 
L 476.71625 310.796308 
L 477.634656 310.146712 
L 478.995258 306.253289 
L 479.539498 299.981729 
L 480.117754 289.918833 
L 480.457904 287.75115 
L 480.9001 283.348975 
L 482.022597 277.681325 
L 482.566837 276.277992 
L 483.145093 274.223928 
L 483.689334 273.769393 
L 484.199559 271.965827 
L 484.7438 271.658085 
L 485.288041 270.691899 
L 485.798267 270.946355 
L 486.342507 269.571129 
L 486.886748 269.605143 
L 487.975229 268.933725 
L 488.51947 269.646609 
L 489.131741 271.407998 
L 490.356283 281.671325 
L 491.002568 290.446915 
L 492.465215 301.215292 
L 494.063923 306.738468 
L 495.832705 309.130608 
L 497.669517 309.956893 
L 501.479202 310.441635 
L 510.527204 310.789284 
L 516.785973 310.888379 
L 517.806424 310.898065 
L 517.806424 310.898065 
" clip-path="url(#p2a16dfc33e)" style="fill: none; stroke: #0000ff; stroke-linecap: square"/>
   </g>
   <g id="line2d_33">
    <path d="M 71.358956 310.825096 
L 71.937212 309.507594 
L 72.073272 309.765671 
L 72.277362 309.856725 
L 72.413423 310.04337 
L 72.787588 310.002859 
L 72.957663 310.243659 
L 73.229784 309.954312 
L 73.842055 309.914091 
L 74.046145 309.825663 
L 74.21622 309.9794 
L 74.454325 309.86356 
L 74.658416 309.930722 
L 74.862506 309.878018 
L 74.930536 310.083138 
L 75.338717 309.891156 
L 76.019017 309.829692 
L 76.019017 310.180593 
L 76.189093 309.980597 
L 76.223108 310.208933 
L 76.393183 309.963663 
L 76.869394 309.801821 
L 79.692642 309.682348 
L 80.815139 309.829875 
L 83.672403 309.65673 
L 84.148613 309.682979 
L 86.835802 309.669731 
L 87.720193 309.700799 
L 87.720193 310.00523 
L 87.924283 309.803657 
L 87.924283 310.028422 
L 88.162389 309.819097 
L 88.162389 310.063812 
L 88.434509 309.742907 
L 88.842689 309.666106 
L 90.645487 309.694626 
L 91.393818 309.797339 
L 91.393818 309.997764 
L 91.427833 309.976599 
L 91.631923 309.775574 
L 91.733968 309.882085 
L 92.040104 309.809228 
L 92.040104 309.986783 
L 92.414269 309.676169 
L 92.89048 309.655622 
L 92.992525 310.029549 
L 93.128585 309.814777 
L 93.264645 309.913852 
L 93.400706 309.870201 
L 93.434721 310.02613 
L 93.502751 309.846257 
L 94.012976 309.630953 
L 95.135473 309.600859 
L 95.781759 309.623576 
L 96.39403 309.675815 
L 96.53009 309.817529 
L 96.73418 309.686652 
L 96.972285 309.788673 
L 97.618571 309.632865 
L 100.543865 309.630658 
L 100.918031 309.625185 
L 101.394241 309.626123 
L 101.632346 309.882996 
L 102.346662 309.767874 
L 102.482723 310.008195 
L 102.788858 309.830956 
L 103.265069 309.654904 
L 103.673249 309.585678 
L 103.843324 309.752676 
L 104.0134 309.752083 
L 104.08143 309.940089 
L 104.523625 309.639696 
L 104.965821 309.624169 
L 104.999836 309.905529 
L 105.101881 309.842653 
L 105.305971 309.669476 
L 105.476047 310.010611 
L 105.612107 309.815318 
L 105.850212 309.721399 
L 105.884227 309.967531 
L 106.088317 309.716703 
L 106.258393 309.739675 
L 106.360438 309.868469 
L 106.598543 309.635282 
L 106.666573 309.893394 
L 107.414904 309.610072 
L 107.891115 309.562834 
L 108.06119 309.740815 
L 108.231265 309.691366 
L 108.571416 309.718434 
L 109.863987 309.604683 
L 111.462695 309.593461 
L 112.10898 309.595495 
L 112.517161 309.579178 
L 113.129432 309.704356 
L 113.333522 309.592609 
L 115.034274 309.596814 
L 115.238365 309.710354 
L 115.238365 309.918675 
L 115.68056 309.59484 
L 115.986696 309.591419 
L 116.020711 309.857894 
L 116.564951 309.600079 
L 117.007147 309.643566 
L 117.313282 309.948633 
L 117.517373 309.742595 
L 117.551388 309.94339 
L 117.959568 309.660171 
L 118.129643 309.737519 
L 118.163658 309.887663 
L 118.265704 309.840776 
L 118.333734 309.9266 
L 118.673884 309.70417 
L 118.911989 309.76167 
L 118.98002 309.933161 
L 119.25214 309.729319 
L 119.490245 309.883559 
L 119.966456 309.636548 
L 120.204561 309.586889 
L 120.204561 309.922843 
L 120.476681 309.644029 
L 120.646757 309.690954 
L 120.748802 309.863643 
L 121.156982 309.657561 
L 122.075389 309.627777 
L 122.143419 309.816899 
L 122.381524 309.710558 
L 122.619629 309.85871 
L 122.857735 309.660933 
L 122.993795 309.776164 
L 123.470005 309.569379 
L 124.286367 309.696932 
L 124.490457 309.590151 
L 125.374848 309.553976 
L 125.374848 309.911687 
L 125.919089 309.623353 
L 126.87151 309.771672 
L 127.00757 309.799007 
L 127.041585 309.93667 
L 127.279691 309.693356 
L 127.517796 309.681028 
L 127.687871 309.880556 
L 127.925976 309.620676 
L 128.164082 309.649775 
L 128.266127 309.83253 
L 128.674307 309.632262 
L 128.810368 309.784518 
L 129.558699 309.622376 
L 129.592714 309.879834 
L 129.830819 309.70448 
L 129.966879 309.772098 
L 130.57915 309.605583 
L 130.681195 309.727908 
L 130.681195 309.942334 
L 130.71521 309.941126 
L 130.953315 309.632155 
L 131.939752 309.500013 
L 132.654068 309.575864 
L 133.368384 309.505752 
L 133.708534 309.783468 
L 134.0827 309.621035 
L 134.15073 309.951018 
L 134.184745 309.891223 
L 134.728985 309.596172 
L 135.205196 309.543856 
L 135.341256 309.781346 
L 135.749437 309.650066 
L 135.749437 309.91816 
L 135.885497 309.786232 
L 135.953527 309.921913 
L 136.429738 309.629141 
L 136.633828 309.707682 
L 136.633828 309.954858 
L 136.769888 309.76014 
L 137.076024 309.73047 
L 137.246099 309.892114 
L 138.810791 309.508081 
L 140.409498 309.497678 
L 140.817678 309.797912 
L 141.395934 309.560676 
L 141.872145 309.532107 
L 141.940175 309.944868 
L 142.382371 309.666973 
L 143.028656 309.560355 
L 143.130702 309.963702 
L 143.300777 309.721081 
L 143.674942 309.916905 
L 143.845018 309.730537 
L 144.219183 309.63258 
L 144.661379 309.512662 
L 145.6138 309.746787 
L 146.226071 309.555956 
L 146.940387 309.536468 
L 147.042432 309.698552 
L 147.246522 309.63811 
L 147.280537 309.981194 
L 147.382582 309.729333 
L 147.654703 309.614974 
L 147.722733 309.857157 
L 147.892808 309.968611 
L 148.232958 309.762643 
L 148.335003 309.855871 
L 148.471064 309.817899 
L 148.675154 309.630522 
L 148.743184 309.961493 
L 149.151365 309.694161 
L 149.59356 309.540919 
L 149.865681 309.71572 
L 150.171816 309.715842 
L 150.205831 309.935754 
L 150.375906 309.771807 
L 150.614012 309.846513 
L 150.886132 309.64245 
L 151.022192 309.797315 
L 151.770523 309.6097 
L 151.838553 309.890629 
L 152.518854 309.694874 
L 152.96105 309.742088 
L 153.335215 309.636196 
L 153.641351 309.815579 
L 153.811426 309.701538 
L 154.117561 309.776589 
L 154.117561 309.945334 
L 154.151576 309.935975 
L 154.389682 309.660045 
L 154.491727 309.900188 
L 154.695817 309.71574 
L 154.695817 309.951924 
L 154.865892 309.73832 
L 155.138013 309.648562 
L 155.138013 309.93624 
L 155.308088 309.796855 
L 155.410133 309.880035 
L 155.886344 309.550708 
L 155.988389 309.833334 
L 156.124449 309.81168 
L 156.124449 309.966521 
L 156.260509 309.824728 
L 156.464599 309.794477 
L 156.87278 309.608354 
L 157.042855 309.72736 
L 157.314975 309.577844 
L 157.621111 309.873441 
L 157.859216 309.597916 
L 158.471487 309.670933 
L 158.709592 309.908949 
L 159.117773 309.631802 
L 159.321863 309.912018 
L 159.593983 309.635983 
L 159.662014 309.989378 
L 160.104209 309.586923 
L 160.78451 309.532761 
L 162.179127 309.513698 
L 162.213142 309.762262 
L 162.655337 309.08103 
L 162.757383 309.045041 
L 163.335638 307.130859 
L 163.981924 303.261661 
L 164.151999 301.288472 
L 165.104421 285.089707 
L 165.614646 280.122579 
L 166.022827 274.789839 
L 166.362977 270.663651 
L 166.533053 269.193373 
L 166.703128 268.92728 
L 166.771158 269.684133 
L 167.043278 266.189623 
L 167.417444 263.691827 
L 167.519489 263.8844 
L 168.233805 259.358646 
L 168.40388 259.846024 
L 169.186226 256.872128 
L 169.356301 256.694657 
L 169.526377 255.695462 
L 169.730467 255.742866 
L 169.900542 254.993102 
L 170.036602 255.358145 
L 170.376753 253.927635 
L 170.546828 254.04985 
L 170.852963 252.862547 
L 171.057054 252.890294 
L 171.193114 253.061954 
L 171.363189 252.484866 
L 171.533264 252.712032 
L 171.70334 252.41371 
L 171.873415 251.806456 
L 172.04349 252.078228 
L 172.519701 251.324788 
L 172.859851 251.277339 
L 172.995911 251.788117 
L 173.302047 251.772635 
L 173.472122 251.153637 
L 173.744242 253.125761 
L 173.914317 252.810696 
L 174.118408 253.32917 
L 175.036814 260.14101 
L 175.717115 269.892391 
L 176.295371 277.282013 
L 176.635521 282.829182 
L 176.873626 284.021957 
L 177.145747 287.261133 
L 177.349837 289.033556 
L 177.383852 290.854728 
L 178.132183 295.950004 
L 178.336273 296.638277 
L 178.744454 299.420352 
L 178.880514 299.718788 
L 179.186649 300.842284 
L 179.356725 301.067186 
L 179.560815 301.561977 
L 179.560815 302.562986 
L 179.832935 302.364416 
L 180.037026 302.736464 
L 180.479221 304.546673 
L 180.649296 304.380034 
L 180.819372 304.500232 
L 181.023462 305.427093 
L 181.261567 305.27749 
L 181.363612 305.751033 
L 181.567703 305.544773 
L 181.703763 305.987561 
L 181.873838 306.004944 
L 182.213988 306.605558 
L 182.350049 306.648604 
L 182.384064 307.175958 
L 182.588154 306.875991 
L 183.03035 307.221542 
L 183.200425 307.101689 
L 183.3705 307.7697 
L 183.540575 307.440108 
L 183.676635 307.580703 
L 184.322921 307.693485 
L 185.003222 308.019726 
L 185.037237 308.354231 
L 185.207312 308.207566 
L 185.309358 308.386638 
L 185.887613 308.308159 
L 186.465869 308.458789 
L 186.499884 308.847101 
L 186.635944 308.646734 
L 186.976095 308.809275 
L 187.180185 308.667074 
L 187.28223 308.816372 
L 187.996546 308.790722 
L 188.064576 309.123559 
L 188.234651 308.913102 
L 188.336697 309.049922 
L 188.540787 308.85766 
L 188.676847 308.936415 
L 189.051013 308.837869 
L 189.187073 309.078001 
L 189.425178 308.806062 
L 189.459193 309.142429 
L 189.629268 308.953663 
L 189.663283 309.217762 
L 189.765328 309.059649 
L 190.207524 308.844511 
L 191.159945 309.212742 
L 191.534111 309.112683 
L 191.534111 309.457035 
L 191.704186 309.24864 
L 191.738201 309.558132 
L 191.976306 309.121698 
L 192.146382 309.18257 
L 192.350472 309.097289 
L 192.418502 309.365705 
L 192.622592 309.184035 
L 193.064788 309.129968 
L 193.166833 309.269297 
L 193.200848 309.641704 
L 193.540999 309.27532 
L 194.187284 309.084511 
L 194.42539 309.077237 
L 194.56145 309.289614 
L 194.731525 309.241713 
L 194.799555 309.437577 
L 195.207736 309.166011 
L 195.309781 309.337167 
L 195.615916 309.331053 
L 195.785991 309.388087 
L 196.398262 309.164094 
L 196.738413 309.294137 
L 196.840458 309.545586 
L 197.044548 309.325345 
L 197.180608 309.551802 
L 197.316669 309.523208 
L 197.316669 309.757228 
L 197.384699 309.717239 
L 197.588789 309.518775 
L 197.656819 309.616661 
L 199.459616 309.271081 
L 200.309992 309.282011 
L 200.718173 309.341211 
L 201.772639 309.35105 
L 201.942715 309.484615 
L 201.942715 309.802235 
L 202.31688 309.433258 
L 202.725061 309.45191 
L 202.827106 309.682997 
L 202.997181 309.595595 
L 203.099226 309.673142 
L 203.269301 309.562314 
L 203.371347 309.83193 
L 203.541422 309.79575 
L 203.779527 309.629844 
L 204.119678 309.818545 
L 204.289753 309.679813 
L 204.970054 309.725897 
L 205.038084 309.908507 
L 205.412249 309.77563 
L 205.548309 309.817679 
L 205.718385 309.694396 
L 206.09255 309.669769 
L 207.555197 309.539261 
L 209.73216 309.568088 
L 209.902235 309.934196 
L 210.038295 309.719359 
L 210.548521 309.622461 
L 210.650566 309.893962 
L 210.888672 309.643255 
L 211.330867 309.606265 
L 211.739048 309.659598 
L 212.147228 309.598037 
L 212.521394 309.755279 
L 212.691469 309.878215 
L 212.895559 309.686792 
L 212.997604 309.797693 
L 213.16768 309.780994 
L 213.269725 309.919556 
L 213.473815 309.672346 
L 213.916011 309.815885 
L 214.120101 309.664532 
L 215.004492 309.679266 
L 215.242597 309.664877 
L 215.242597 309.666935 
L 215.412673 309.770378 
L 216.058958 309.63338 
L 216.229034 309.815691 
L 216.637214 309.688004 
L 219.562508 309.732994 
L 221.535381 309.687439 
L 221.739471 309.662069 
L 221.875531 309.895409 
L 222.113636 309.702921 
L 223.168103 309.675827 
L 223.406208 309.793472 
L 223.406208 310.117237 
L 223.542268 309.992638 
L 223.678329 310.117997 
L 223.950449 309.794935 
L 223.950449 310.131696 
L 224.154539 309.90699 
L 224.222569 310.048789 
L 224.358629 309.918821 
L 224.56272 309.924999 
L 224.596735 310.084407 
L 224.83484 309.84392 
L 225.004915 309.89425 
L 225.209006 310.00277 
L 225.447111 309.745859 
L 225.821276 309.764957 
L 225.991352 309.887277 
L 226.263472 309.696389 
L 226.433547 309.724541 
L 226.535592 309.94325 
L 226.671652 309.965541 
L 226.841728 309.826104 
L 226.977788 309.871793 
L 227.215893 309.717957 
L 227.283923 309.983254 
L 227.692104 309.756658 
L 227.760134 310.043117 
L 228.134299 309.710635 
L 228.236345 309.885981 
L 228.67854 309.718248 
L 228.74657 309.986436 
L 228.950661 309.787778 
L 229.596946 309.714543 
L 229.801037 309.788415 
L 230.209217 309.689137 
L 231.229669 309.670842 
L 232.488225 309.682919 
L 232.59027 309.900601 
L 232.998451 309.684658 
L 234.291023 309.668014 
L 234.393068 309.88505 
L 234.631173 309.723791 
L 234.665188 310.015872 
L 235.005339 309.835636 
L 238.100708 309.626467 
L 238.270783 309.713529 
L 238.678963 309.659236 
L 238.815024 309.837436 
L 239.053129 309.661817 
L 240.311686 309.645755 
L 241.230092 309.680603 
L 241.638272 309.649676 
L 242.318573 309.712215 
L 243.202964 309.67783 
L 243.270995 309.865551 
L 243.71319 309.727666 
L 243.815235 309.923062 
L 244.053341 309.85276 
L 244.155386 309.881731 
L 244.801672 309.701689 
L 244.971747 309.819243 
L 245.481972 309.688032 
L 247.114695 309.684896 
L 247.28477 309.798475 
L 247.3528 309.985363 
L 247.76098 309.771451 
L 247.999086 309.794073 
L 248.407266 309.709553 
L 251.46862 309.667267 
L 251.672711 309.958423 
L 252.012861 309.825855 
L 252.012861 310.054544 
L 252.046876 310.029288 
L 252.284982 309.739089 
L 252.523087 309.727025 
L 252.625132 309.878802 
L 252.999297 309.801555 
L 253.237403 309.689699 
L 253.339448 309.910636 
L 253.645583 309.853223 
L 255.686486 309.653865 
L 255.788531 309.882238 
L 255.958606 309.765699 
L 255.958606 310.032578 
L 256.604892 309.775136 
L 257.047088 309.648146 
L 258.135569 309.6378 
L 258.271629 309.757409 
L 258.781855 309.721037 
L 260.142457 309.616882 
L 260.516622 309.681527 
L 260.890788 309.868148 
L 261.332984 309.664047 
L 262.013284 309.603298 
L 262.285405 309.895969 
L 262.7276 309.717429 
L 262.965706 309.666868 
L 263.033736 309.906183 
L 263.135781 309.841876 
L 263.237826 309.942735 
L 263.407901 309.738687 
L 264.836533 309.695129 
L 264.938578 309.935734 
L 265.074638 309.829164 
L 265.346759 309.856435 
L 265.788954 309.804988 
L 265.788954 309.960979 
L 265.95903 309.773758 
L 266.877436 309.734374 
L 266.945466 309.928997 
L 267.353647 309.64096 
L 267.965917 309.68462 
L 268.442128 309.623555 
L 269.972805 309.554462 
L 272.830069 309.43554 
L 273.5784 308.08611 
L 274.462791 304.534903 
L 275.245137 293.063993 
L 275.789378 284.57368 
L 276.945889 271.58728 
L 277.14998 270.124032 
L 277.252025 271.410063 
L 277.55816 267.246303 
L 277.728235 266.533985 
L 277.76225 267.227427 
L 278.034371 265.167362 
L 278.068386 265.685653 
L 278.408536 262.178398 
L 278.612626 261.700466 
L 279.122852 258.609679 
L 279.326942 258.32461 
L 279.633078 257.005572 
L 279.803153 256.922061 
L 280.517469 255.0714 
L 280.687544 255.237777 
L 280.823604 255.215377 
L 280.99368 254.42943 
L 281.12974 254.463959 
L 281.503905 253.515469 
L 281.639965 254.537283 
L 281.776026 254.166074 
L 282.150191 252.297679 
L 282.320266 251.683288 
L 282.490342 251.881691 
L 282.660417 251.431824 
L 282.830492 252.523629 
L 283.000567 251.487356 
L 283.170643 251.219593 
L 283.340718 250.673134 
L 283.510793 250.740757 
L 283.680868 250.298818 
L 283.816928 251.038757 
L 283.987004 250.688977 
L 284.157079 250.799899 
L 284.83738 253.946501 
L 285.857831 263.42657 
L 286.163966 268.74609 
L 286.504117 272.70675 
L 286.878282 277.501548 
L 287.354493 284.422486 
L 287.524568 285.759422 
L 287.626613 287.891204 
L 287.830704 288.953659 
L 287.898734 290.907168 
L 288.068809 291.564446 
L 288.54502 295.736497 
L 289.667516 301.204109 
L 289.871606 301.38871 
L 290.007667 302.143048 
L 290.211757 302.30725 
L 290.313802 302.930248 
L 290.517892 302.931671 
L 290.619937 303.792968 
L 290.790013 303.747577 
L 291.130163 304.324032 
L 291.334253 304.5874 
L 291.334253 305.246512 
L 291.606374 305.062939 
L 291.776449 305.713918 
L 291.946524 305.647627 
L 292.082584 305.807219 
L 292.286675 305.863518 
L 292.66084 306.676797 
L 293.511216 307.278052 
L 293.579246 307.663444 
L 293.919397 307.521861 
L 294.123487 307.662794 
L 294.225532 307.917979 
L 294.497653 308.037028 
L 294.599698 308.251863 
L 294.871818 307.997442 
L 295.279999 307.926958 
L 295.824239 308.133706 
L 295.960299 308.48024 
L 296.50454 308.275702 
L 296.674615 308.478386 
L 296.70863 308.810461 
L 296.878706 308.597014 
L 296.980751 308.748037 
L 297.150826 308.550728 
L 297.388931 308.518699 
L 297.797112 308.808465 
L 298.001202 308.698139 
L 298.613473 308.853195 
L 298.817563 308.913499 
L 298.919608 309.12291 
L 299.191729 308.942821 
L 299.361804 308.90724 
L 299.463849 309.084013 
L 299.769985 308.98012 
L 300.14415 308.85564 
L 300.518316 309.074388 
L 300.688391 309.161034 
L 301.096571 308.954276 
L 301.436722 309.087501 
L 301.912932 308.93328 
L 303.069444 308.988715 
L 303.443609 309.359675 
L 304.021865 309.113804 
L 304.089895 309.393088 
L 304.225955 309.293722 
L 304.838226 309.599912 
L 305.144362 309.402882 
L 305.314437 309.58727 
L 305.484512 309.357526 
L 305.892693 309.214598 
L 306.062768 309.361439 
L 306.232843 309.347286 
L 306.266858 309.67614 
L 306.436933 309.492212 
L 306.538979 309.581614 
L 306.777084 309.448748 
L 307.015189 309.314171 
L 307.28731 309.293949 
L 307.35534 309.462138 
L 307.729505 309.355497 
L 307.729505 309.701443 
L 307.933595 309.417493 
L 308.273746 309.364927 
L 308.341776 309.615993 
L 308.477836 309.533524 
L 308.511851 309.6724 
L 308.783972 309.586668 
L 308.988062 309.415168 
L 309.158137 309.705453 
L 309.362227 309.463982 
L 309.532303 309.526149 
L 309.736393 309.39042 
L 310.654799 309.462351 
L 310.722829 309.765625 
L 310.858889 309.640878 
L 310.926919 309.857275 
L 311.505175 309.501327 
L 311.913356 309.493328 
L 312.695702 309.414802 
L 315.348875 309.511555 
L 315.586981 309.733823 
L 315.791071 309.620151 
L 315.859101 309.986363 
L 316.063191 309.84671 
L 316.233266 309.873682 
L 316.437357 309.63541 
L 316.505387 309.874321 
L 316.947582 309.57832 
L 317.117658 309.902169 
L 317.287733 309.721434 
L 317.321748 309.914044 
L 317.525838 309.725429 
L 317.661898 309.862264 
L 317.900004 309.66871 
L 318.444244 309.637425 
L 318.478259 309.896817 
L 318.988485 309.606466 
L 319.192575 309.78263 
L 319.600756 309.596557 
L 319.770831 309.708808 
L 320.179012 309.609614 
L 321.029388 309.671117 
L 323.546501 309.616281 
L 323.954682 309.647686 
L 325.247253 309.669512 
L 325.349299 309.953437 
L 325.485359 309.855972 
L 325.689449 309.974293 
L 325.961569 309.942403 
L 326.30172 309.829411 
L 326.57384 309.910998 
L 327.016036 309.760444 
L 327.118081 309.861638 
L 327.526261 309.758126 
L 327.968457 309.739068 
L 328.580728 309.748915 
L 329.601179 309.735251 
L 329.703224 309.994896 
L 329.8733 309.893895 
L 329.94133 310.000735 
L 330.247465 309.890033 
L 330.451555 309.973622 
L 330.655646 309.92546 
L 330.757691 310.168306 
L 330.859736 310.004424 
L 331.846172 309.7915 
L 332.798593 309.872944 
L 333.240789 309.755513 
L 333.92109 309.749932 
L 334.05715 309.844876 
L 335.179647 309.756216 
L 335.791917 309.765094 
L 338.206986 309.760235 
L 338.275016 309.927353 
L 338.411076 309.965667 
L 338.547136 309.853689 
L 338.785241 309.873943 
L 339.431527 309.839828 
L 339.635617 309.872614 
L 339.635617 310.080361 
L 339.907738 309.977391 
L 340.281903 309.887403 
L 340.485994 309.743413 
L 340.554024 310.110921 
L 340.962204 309.814434 
L 341.132279 309.812185 
L 341.166295 310.028592 
L 341.4044 309.788485 
L 341.438415 310.15197 
L 341.438415 310.116222 
L 341.642505 309.87445 
L 342.118716 309.701767 
L 345.38416 309.729011 
L 345.418175 310.022874 
L 345.622265 310.030386 
L 345.65628 310.083191 
L 345.860371 309.79622 
L 346.030446 309.851973 
L 346.030446 310.101773 
L 346.166506 310.040029 
L 346.404611 309.736704 
L 346.574687 309.837377 
L 347.527108 309.678754 
L 348.139379 309.687501 
L 349.02377 309.665497 
L 349.15983 309.757373 
L 350.248312 309.636089 
L 351.098688 309.652919 
L 351.540883 309.634853 
L 351.676943 309.779586 
L 351.881034 309.688904 
L 352.017094 309.7681 
L 352.493305 309.696145 
L 352.697395 309.697338 
L 352.79944 309.834606 
L 353.207621 309.778239 
L 353.853906 309.655379 
L 355.146478 309.740577 
L 355.214508 309.980583 
L 355.384583 309.841933 
L 355.486629 309.948476 
L 355.792764 309.822094 
L 355.860794 309.979475 
L 356.166929 309.824736 
L 356.609125 309.667538 
L 357.255411 309.688229 
L 357.833667 309.75917 
L 357.935712 309.899482 
L 359.364344 309.689945 
L 360.520855 309.678126 
L 360.69093 309.672515 
L 360.929036 309.874767 
L 361.303201 309.711503 
L 362.969938 309.667676 
L 364.160465 309.651551 
L 364.602661 309.649074 
L 365.487052 309.700859 
L 365.589097 309.926057 
L 365.929247 309.765208 
L 366.065308 309.886794 
L 366.677578 309.697747 
L 368.344316 309.749829 
L 368.378331 310.081627 
L 368.684466 309.838452 
L 368.820526 309.910828 
L 369.126662 309.751355 
L 370.181128 309.863229 
L 370.385218 309.749177 
L 370.589309 309.976087 
L 370.827414 309.746824 
L 370.861429 309.954557 
L 371.065519 309.76604 
L 371.235594 309.793729 
L 371.4737 309.678449 
L 371.60976 310.013139 
L 371.81385 309.765956 
L 371.847865 310.016763 
L 372.01794 309.779399 
L 372.426121 309.675423 
L 372.528166 309.814131 
L 373.344527 309.65611 
L 373.480587 309.808004 
L 373.820738 309.74585 
L 373.820738 310.012673 
L 374.262933 309.68516 
L 374.909219 309.635066 
L 375.11331 309.970378 
L 375.3174 309.726763 
L 375.555505 309.661863 
L 375.58952 309.954326 
L 375.997701 309.717821 
L 376.916107 309.710641 
L 377.800498 309.629875 
L 378.208679 309.648778 
L 379.875416 309.639157 
L 380.147536 309.64504 
L 380.283596 309.816137 
L 380.487687 309.660076 
L 380.861852 309.754892 
L 380.895867 309.972142 
L 381.133973 309.719687 
L 381.576168 309.671944 
L 381.780258 309.882734 
L 381.984349 309.672698 
L 382.358514 309.665997 
L 382.358514 310.000499 
L 382.460559 309.988926 
L 383.20889 309.652764 
L 383.344951 309.984246 
L 383.549041 309.727724 
L 383.617071 309.966379 
L 383.753131 309.810138 
L 383.957221 309.765873 
L 384.059266 309.868189 
L 384.195327 309.781792 
L 384.297372 309.880964 
L 384.535477 309.712521 
L 384.671537 309.990707 
L 385.079718 309.729496 
L 385.521913 309.632302 
L 385.726004 309.635227 
L 385.964109 309.858381 
L 386.91653 309.667002 
L 387.018575 309.879362 
L 387.596831 309.757695 
L 387.698876 309.818083 
L 388.005012 309.795211 
L 388.141072 309.8749 
L 388.277132 309.703869 
L 389.229553 309.614014 
L 389.399629 309.650179 
L 389.841824 309.571465 
L 391.542576 309.564872 
L 392.052802 309.585833 
L 393.175299 309.550553 
L 393.583479 309.608941 
L 394.46787 309.537633 
L 394.705976 309.53877 
L 394.876051 309.726845 
L 395.352261 309.574627 
L 397.665285 309.684002 
L 397.733315 309.879019 
L 397.97142 309.643178 
L 398.651721 309.541439 
L 399.332022 309.61638 
L 399.570127 309.545379 
L 399.706187 309.731918 
L 399.944293 309.621141 
L 399.944293 309.950238 
L 400.386488 309.647417 
L 400.828684 309.643662 
L 400.964744 309.685429 
L 401.440955 309.559593 
L 401.67906 309.582727 
L 401.88315 309.716716 
L 402.223301 309.506999 
L 402.223301 309.75533 
L 402.359361 309.63697 
L 402.529436 309.094109 
L 402.631481 309.150952 
L 402.869586 308.134376 
L 402.903602 308.426368 
L 403.209737 307.381976 
L 403.583902 305.597733 
L 403.992083 301.918406 
L 404.672384 290.358965 
L 404.910489 287.876895 
L 405.284655 282.6918 
L 405.998971 273.807657 
L 406.509196 269.389267 
L 407.019422 266.491574 
L 407.359572 263.89957 
L 407.495633 264.612766 
L 407.835783 260.996314 
L 408.482069 259.804453 
L 408.652144 258.436346 
L 408.788204 258.79871 
L 409.536535 255.789139 
L 409.706611 255.214579 
L 409.842671 255.167213 
L 410.693047 253.865069 
L 410.863122 254.370281 
L 410.999182 253.596026 
L 411.135242 253.67054 
L 411.271303 253.971108 
L 411.407363 253.656815 
L 411.577438 252.809255 
L 411.679483 253.395635 
L 411.883573 252.192001 
L 412.087664 252.133419 
L 412.223724 252.419231 
L 412.563874 251.058808 
L 412.699935 252.435402 
L 412.835995 251.773851 
L 413.040085 251.724586 
L 413.312205 251.281791 
L 413.516296 251.329261 
L 413.958491 254.245396 
L 414.094551 254.24528 
L 414.298642 255.777749 
L 414.298642 258.716338 
L 414.400687 257.753741 
L 414.570762 258.195924 
L 414.706822 261.882618 
L 414.910912 261.714385 
L 414.944927 263.74559 
L 415.149018 264.357419 
L 415.557198 268.829597 
L 416.50962 282.414336 
L 416.84977 285.482036 
L 417.12189 289.161584 
L 417.291966 290.100944 
L 417.428026 291.856399 
L 417.632116 292.844674 
L 417.700146 294.70058 
L 417.938251 294.831843 
L 418.278402 297.138341 
L 418.516507 298.725032 
L 418.992718 300.785219 
L 419.468928 301.878201 
L 419.843094 302.585271 
L 420.42135 304.369752 
L 420.42135 304.839265 
L 420.591425 304.62444 
L 420.82953 304.790424 
L 421.033621 305.510086 
L 421.271726 305.664979 
L 421.475816 305.618998 
L 421.645891 305.885231 
L 421.849982 305.971265 
L 422.156117 306.51732 
L 422.190132 306.988368 
L 422.360207 306.828077 
L 422.496268 306.97276 
L 422.700358 306.850689 
L 422.802403 307.450821 
L 422.972478 307.216257 
L 423.686794 307.71415 
L 423.754824 308.021174 
L 423.890884 308.063879 
L 424.094975 307.932085 
L 424.571185 308.240293 
L 424.877321 308.231581 
L 424.911336 308.56633 
L 425.319516 308.379886 
L 425.693682 308.184716 
L 426.305953 308.353495 
L 426.510043 308.320695 
L 426.680118 308.440688 
L 427.462464 308.550661 
L 427.83663 308.609859 
L 428.210795 308.728426 
L 428.24481 309.273354 
L 428.278825 309.239006 
L 428.482915 308.997335 
L 428.721021 309.058328 
L 429.095186 308.88368 
L 429.265262 309.062636 
L 429.469352 308.863214 
L 430.081623 308.804044 
L 431.510254 309.017503 
L 432.08851 308.994985 
L 432.734796 309.035409 
L 432.904871 309.044433 
L 433.176992 309.386942 
L 433.347067 309.325191 
L 433.415097 309.508351 
L 433.755247 309.283902 
L 434.095398 309.377796 
L 434.095398 309.621856 
L 434.503578 309.157929 
L 435.081834 309.392907 
L 435.694105 309.424827 
L 435.762135 309.664971 
L 435.966225 309.384988 
L 436.204331 309.428478 
L 436.408421 309.27552 
L 436.442436 309.541258 
L 437.020692 309.39301 
L 437.088722 309.648253 
L 437.190767 309.521516 
L 437.428872 309.63823 
L 438.007128 309.273333 
L 438.177203 309.36432 
L 438.789474 309.227039 
L 439.43576 309.289496 
L 439.63985 309.673632 
L 439.843941 309.524508 
L 439.945986 309.614853 
L 440.150076 309.451466 
L 440.218106 309.753313 
L 440.796362 309.446266 
L 440.864392 309.623561 
L 441.034467 309.643182 
L 441.068482 309.76881 
L 441.680753 309.497607 
L 441.952873 309.744599 
L 441.986888 309.879338 
L 442.156964 309.607233 
L 442.259009 309.763969 
L 442.633174 309.682626 
L 443.313475 309.553052 
L 443.993776 309.46964 
L 444.061806 309.809076 
L 444.435972 309.636028 
L 444.504002 309.956605 
L 444.810137 309.584593 
L 446.64695 309.474173 
L 447.089145 309.754986 
L 447.293235 309.569172 
L 448.109597 309.551805 
L 448.517777 309.626984 
L 448.687852 309.926281 
L 448.891943 309.708911 
L 448.959973 309.776836 
L 449.402168 309.599952 
L 450.8308 309.717781 
L 451.272996 309.644428 
L 451.409056 309.811754 
L 451.715191 309.795883 
L 451.783221 309.958635 
L 451.987312 309.730505 
L 452.225417 309.654145 
L 452.395492 309.775487 
L 452.633598 309.701509 
L 452.803673 309.843611 
L 453.007763 309.733282 
L 453.109808 309.897556 
L 453.552004 309.684243 
L 453.586019 310.006579 
L 454.062229 309.70542 
L 454.26632 309.754864 
L 454.6745 309.668876 
L 456.307222 309.795401 
L 456.681388 309.965642 
L 457.123583 309.747201 
L 457.361689 309.708503 
L 457.531764 309.805931 
L 458.212065 309.740335 
L 459.674712 309.713392 
L 460.525088 309.719146 
L 460.695163 309.951587 
L 460.899254 309.800928 
L 461.477509 310.034747 
L 461.6816 309.826669 
L 461.81766 309.940529 
L 462.22584 309.761001 
L 462.463946 309.993263 
L 462.668036 309.81866 
L 462.804096 310.005449 
L 463.008186 309.785289 
L 463.076216 310.02246 
L 463.824547 309.72767 
L 464.062653 309.732312 
L 464.130683 309.977335 
L 464.708939 309.74441 
L 465.559315 309.77728 
L 465.79742 309.953163 
L 466.035525 309.79236 
L 466.103555 310.057164 
L 466.307646 309.818743 
L 466.409691 309.97883 
L 466.749841 309.856426 
L 467.226052 309.744225 
L 467.362112 309.938912 
L 467.804308 309.856073 
L 468.042413 309.73088 
L 468.178473 309.89336 
L 468.620669 309.750151 
L 468.858774 309.736705 
L 469.062864 310.030631 
L 469.30097 309.785228 
L 469.84521 309.751943 
L 470.559526 309.725937 
L 470.967707 309.701094 
L 471.103767 309.860655 
L 471.341872 309.753222 
L 471.784068 310.023831 
L 471.988158 309.76993 
L 472.192249 309.768782 
L 472.260279 310.022399 
L 472.430354 309.904636 
L 472.430354 310.124963 
L 472.872549 309.773789 
L 473.756941 309.706841 
L 474.403226 309.802924 
L 475.049512 309.6922 
L 475.219588 309.794857 
L 475.831858 309.726798 
L 476.682234 309.735388 
L 476.886325 309.977094 
L 477.12443 309.748482 
L 477.362535 309.74919 
L 477.464581 309.989593 
L 478.212911 309.672183 
L 479.641543 309.761469 
L 480.321844 309.689845 
L 480.730025 309.718503 
L 481.410326 309.675275 
L 481.546386 309.848794 
L 482.022597 309.920835 
L 482.226687 309.746424 
L 482.362747 309.948601 
L 482.600852 309.74422 
L 483.451228 309.74716 
L 483.655319 309.679844 
L 483.825394 309.763393 
L 484.7438 309.689947 
L 485.424101 309.665767 
L 487.396974 309.727383 
L 487.533034 309.928918 
L 488.213335 309.780241 
L 488.65553 309.687178 
L 488.72356 310.105443 
L 488.791591 310.033915 
L 489.097726 309.762015 
L 490.016132 309.700983 
L 490.186207 309.808331 
L 490.662418 309.702392 
L 491.750899 309.645139 
L 491.920975 309.860791 
L 492.36317 309.667369 
L 492.805366 309.666455 
L 492.873396 309.952588 
L 493.349607 309.68814 
L 493.689757 309.809774 
L 494.982329 309.67114 
L 495.084374 309.853169 
L 495.526569 309.679661 
L 496.00278 309.6775 
L 496.444976 309.660392 
L 496.547021 309.931705 
L 497.023231 309.669835 
L 499.234209 309.757363 
L 499.234209 310.08015 
L 499.336255 309.983827 
L 499.64239 309.828298 
L 499.880495 309.715223 
L 499.98254 310.062702 
L 500.322691 309.784755 
L 500.390721 309.901882 
L 500.628826 309.770443 
L 500.696856 309.960604 
L 500.798901 309.848112 
L 500.900947 309.932557 
L 501.139052 309.675304 
L 501.479202 310.018983 
L 501.751323 309.851722 
L 501.955413 309.753332 
L 502.159503 309.781468 
L 502.193518 309.930373 
L 502.431624 309.716352 
L 503.07791 309.76052 
L 503.282 309.657949 
L 503.75821 309.639925 
L 503.894271 309.833843 
L 504.336466 309.628039 
L 505.016767 309.632387 
L 505.118812 309.8502 
L 505.765098 309.625681 
L 506.887595 309.569324 
L 508.316226 309.585902 
L 508.758422 309.605684 
L 509.438723 309.575843 
L 512.159927 309.627372 
L 512.602122 309.606892 
L 512.704167 309.790527 
L 513.180378 309.836674 
L 513.214393 309.988118 
L 513.384468 309.783211 
L 514.74507 309.667618 
L 514.94916 309.735658 
L 515.01719 309.952873 
L 515.255296 309.62831 
L 515.867566 309.732938 
L 515.901582 309.940251 
L 516.275747 309.659075 
L 516.377792 309.850971 
L 516.888018 309.802117 
L 516.990063 309.873211 
L 517.670364 309.603228 
L 517.772409 309.660433 
L 517.772409 309.660433 
" clip-path="url(#p2a16dfc33e)" style="fill: none; stroke: #ff4500; stroke-linecap: square"/>
   </g>
   <g id="line2d_34">
    <path d="M 70.814716 308.00963 
L 95.101458 307.919577 
L 96.257969 307.737117 
L 97.07433 304.239197 
L 97.788646 299.98483 
L 98.332887 285.72397 
L 98.775083 262.966572 
L 99.047203 253.311693 
L 99.455384 247.682517 
L 99.829549 238.320886 
L 100.135684 238.260097 
L 100.57788 231.838551 
L 101.122121 227.103934 
L 101.768407 224.77833 
L 103.026963 218.212961 
L 103.571204 217.216751 
L 104.14946 215.780835 
L 104.795746 216.53356 
L 105.408016 213.677281 
L 106.020287 216.095913 
L 106.564528 211.80857 
L 107.210814 216.329874 
L 107.687025 213.382852 
L 108.33331 218.426627 
L 108.809521 220.693263 
L 109.523837 230.064096 
L 110.136108 242.835839 
L 111.63277 265.397478 
L 113.163447 281.156638 
L 113.945793 285.629913 
L 114.830184 291.679244 
L 116.564951 298.379175 
L 117.415327 300.356352 
L 118.197673 302.854533 
L 120.306606 305.809294 
L 121.395088 306.495744 
L 122.585614 307.07385 
L 127.279691 307.750349 
L 136.973978 308.290163 
L 165.716692 308.662382 
L 181.805808 308.465207 
L 217.55562 308.135471 
L 224.528705 308.102972 
L 233.848827 308.074166 
L 251.1965 307.949672 
L 252.284982 307.239956 
L 253.101343 303.744681 
L 253.815659 298.149489 
L 254.053764 295.239898 
L 254.189824 283.728755 
L 254.393914 276.214484 
L 254.598005 263.803097 
L 255.24429 248.630607 
L 256.332772 234.298224 
L 256.877013 231.436263 
L 257.353223 226.071471 
L 257.897464 224.624919 
L 258.54375 220.195754 
L 259.087991 219.10012 
L 259.598216 217.231782 
L 260.176472 216.253918 
L 260.788743 214.947277 
L 261.435029 216.131124 
L 261.979269 213.347834 
L 262.59154 212.179102 
L 263.816082 217.30483 
L 264.292292 217.254021 
L 264.938578 222.619218 
L 265.652894 236.931667 
L 266.197135 243.858656 
L 266.877436 256.695822 
L 267.693797 265.518703 
L 268.442128 275.475822 
L 270.14288 288.491502 
L 270.959241 291.818607 
L 271.877648 296.274412 
L 272.659994 298.523759 
L 273.544385 301.464326 
L 274.428776 302.955599 
L 275.415212 304.986319 
L 277.69422 306.823259 
L 280.041258 307.40333 
L 289.599486 308.170975 
L 311.947371 308.655382 
L 330.723676 308.544481 
L 341.710535 308.444591 
L 398.17551 308.028313 
L 399.161947 306.552884 
L 399.910278 302.10027 
L 400.488533 297.379413 
L 400.828684 282.81972 
L 400.998759 269.853795 
L 401.47497 254.931225 
L 401.88315 249.566356 
L 402.359361 240.028831 
L 402.971632 235.539289 
L 403.549887 229.387147 
L 403.992083 227.900866 
L 404.366248 224.387766 
L 404.774429 225.391105 
L 405.3867 219.470756 
L 405.998971 217.960338 
L 406.645256 216.778673 
L 407.223512 217.500202 
L 407.835783 214.637977 
L 408.414039 213.772232 
L 409.02631 214.70311 
L 409.672595 217.049717 
L 410.250851 214.842847 
L 410.727062 216.474103 
L 411.849558 228.233137 
L 412.495844 241.950944 
L 413.0741 250.144101 
L 413.822431 262.793873 
L 415.421138 280.039442 
L 416.203484 284.59024 
L 417.12189 290.954957 
L 417.904236 293.666575 
L 418.720598 297.68985 
L 419.502944 299.667468 
L 420.28529 302.249377 
L 421.373771 303.764072 
L 422.496268 305.586111 
L 424.775276 307.034635 
L 427.122314 307.520213 
L 435.52403 308.164099 
L 439.16364 308.337008 
L 456.545328 308.663163 
L 474.097091 308.573918 
L 518.554755 308.172008 
L 518.554755 308.172008 
" clip-path="url(#p2a16dfc33e)" style="fill: none; stroke: #8b008b; stroke-linecap: square"/>
   </g>
   <g id="patch_8">
    <path d="M 71.91 312.035718 
L 71.91 197.731482 
" style="fill: none; stroke: #000000; stroke-width: 0.8; stroke-linejoin: miter; stroke-linecap: square"/>
   </g>
   <g id="patch_9">
    <path d="M 517.752 312.035718 
L 517.752 197.731482 
" style="fill: none; stroke: #000000; stroke-width: 0.8; stroke-linejoin: miter; stroke-linecap: square"/>
   </g>
   <g id="patch_10">
    <path d="M 71.91 312.035718 
L 517.752 312.035718 
" style="fill: none; stroke: #000000; stroke-width: 0.8; stroke-linejoin: miter; stroke-linecap: square"/>
   </g>
   <g id="patch_11">
    <path d="M 71.91 197.731482 
L 517.752 197.731482 
" style="fill: none; stroke: #000000; stroke-width: 0.8; stroke-linejoin: miter; stroke-linecap: square"/>
   </g>
   <g id="text_13">
    <!-- Tungsten sputtering source (a.u.) -->
    <g transform="translate(178.585062 191.731482)scale(0.14 -0.14)">
     <defs>
      <path id="DejaVuSans-54" d="M -19 4666 
L 3928 4666 
L 3928 4134 
L 2272 4134 
L 2272 0 
L 1638 0 
L 1638 4134 
L -19 4134 
L -19 4666 
z
" transform="scale(0.015625)"/>
      <path id="DejaVuSans-75" d="M 544 1381 
L 544 3500 
L 1119 3500 
L 1119 1403 
Q 1119 906 1312 657 
Q 1506 409 1894 409 
Q 2359 409 2629 706 
Q 2900 1003 2900 1516 
L 2900 3500 
L 3475 3500 
L 3475 0 
L 2900 0 
L 2900 538 
Q 2691 219 2414 64 
Q 2138 -91 1772 -91 
Q 1169 -91 856 284 
Q 544 659 544 1381 
z
M 1991 3584 
L 1991 3584 
z
" transform="scale(0.015625)"/>
      <path id="DejaVuSans-6e" d="M 3513 2113 
L 3513 0 
L 2938 0 
L 2938 2094 
Q 2938 2591 2744 2837 
Q 2550 3084 2163 3084 
Q 1697 3084 1428 2787 
Q 1159 2491 1159 1978 
L 1159 0 
L 581 0 
L 581 3500 
L 1159 3500 
L 1159 2956 
Q 1366 3272 1645 3428 
Q 1925 3584 2291 3584 
Q 2894 3584 3203 3211 
Q 3513 2838 3513 2113 
z
" transform="scale(0.015625)"/>
      <path id="DejaVuSans-67" d="M 2906 1791 
Q 2906 2416 2648 2759 
Q 2391 3103 1925 3103 
Q 1463 3103 1205 2759 
Q 947 2416 947 1791 
Q 947 1169 1205 825 
Q 1463 481 1925 481 
Q 2391 481 2648 825 
Q 2906 1169 2906 1791 
z
M 3481 434 
Q 3481 -459 3084 -895 
Q 2688 -1331 1869 -1331 
Q 1566 -1331 1297 -1286 
Q 1028 -1241 775 -1147 
L 775 -588 
Q 1028 -725 1275 -790 
Q 1522 -856 1778 -856 
Q 2344 -856 2625 -561 
Q 2906 -266 2906 331 
L 2906 616 
Q 2728 306 2450 153 
Q 2172 0 1784 0 
Q 1141 0 747 490 
Q 353 981 353 1791 
Q 353 2603 747 3093 
Q 1141 3584 1784 3584 
Q 2172 3584 2450 3431 
Q 2728 3278 2906 2969 
L 2906 3500 
L 3481 3500 
L 3481 434 
z
" transform="scale(0.015625)"/>
      <path id="DejaVuSans-73" d="M 2834 3397 
L 2834 2853 
Q 2591 2978 2328 3040 
Q 2066 3103 1784 3103 
Q 1356 3103 1142 2972 
Q 928 2841 928 2578 
Q 928 2378 1081 2264 
Q 1234 2150 1697 2047 
L 1894 2003 
Q 2506 1872 2764 1633 
Q 3022 1394 3022 966 
Q 3022 478 2636 193 
Q 2250 -91 1575 -91 
Q 1294 -91 989 -36 
Q 684 19 347 128 
L 347 722 
Q 666 556 975 473 
Q 1284 391 1588 391 
Q 1994 391 2212 530 
Q 2431 669 2431 922 
Q 2431 1156 2273 1281 
Q 2116 1406 1581 1522 
L 1381 1569 
Q 847 1681 609 1914 
Q 372 2147 372 2553 
Q 372 3047 722 3315 
Q 1072 3584 1716 3584 
Q 2034 3584 2315 3537 
Q 2597 3491 2834 3397 
z
" transform="scale(0.015625)"/>
      <path id="DejaVuSans-74" d="M 1172 4494 
L 1172 3500 
L 2356 3500 
L 2356 3053 
L 1172 3053 
L 1172 1153 
Q 1172 725 1289 603 
Q 1406 481 1766 481 
L 2356 481 
L 2356 0 
L 1766 0 
Q 1100 0 847 248 
Q 594 497 594 1153 
L 594 3053 
L 172 3053 
L 172 3500 
L 594 3500 
L 594 4494 
L 1172 4494 
z
" transform="scale(0.015625)"/>
      <path id="DejaVuSans-20" transform="scale(0.015625)"/>
      <path id="DejaVuSans-70" d="M 1159 525 
L 1159 -1331 
L 581 -1331 
L 581 3500 
L 1159 3500 
L 1159 2969 
Q 1341 3281 1617 3432 
Q 1894 3584 2278 3584 
Q 2916 3584 3314 3078 
Q 3713 2572 3713 1747 
Q 3713 922 3314 415 
Q 2916 -91 2278 -91 
Q 1894 -91 1617 61 
Q 1341 213 1159 525 
z
M 3116 1747 
Q 3116 2381 2855 2742 
Q 2594 3103 2138 3103 
Q 1681 3103 1420 2742 
Q 1159 2381 1159 1747 
Q 1159 1113 1420 752 
Q 1681 391 2138 391 
Q 2594 391 2855 752 
Q 3116 1113 3116 1747 
z
" transform="scale(0.015625)"/>
      <path id="DejaVuSans-72" d="M 2631 2963 
Q 2534 3019 2420 3045 
Q 2306 3072 2169 3072 
Q 1681 3072 1420 2755 
Q 1159 2438 1159 1844 
L 1159 0 
L 581 0 
L 581 3500 
L 1159 3500 
L 1159 2956 
Q 1341 3275 1631 3429 
Q 1922 3584 2338 3584 
Q 2397 3584 2469 3576 
Q 2541 3569 2628 3553 
L 2631 2963 
z
" transform="scale(0.015625)"/>
      <path id="DejaVuSans-69" d="M 603 3500 
L 1178 3500 
L 1178 0 
L 603 0 
L 603 3500 
z
M 603 4863 
L 1178 4863 
L 1178 4134 
L 603 4134 
L 603 4863 
z
" transform="scale(0.015625)"/>
      <path id="DejaVuSans-6f" d="M 1959 3097 
Q 1497 3097 1228 2736 
Q 959 2375 959 1747 
Q 959 1119 1226 758 
Q 1494 397 1959 397 
Q 2419 397 2687 759 
Q 2956 1122 2956 1747 
Q 2956 2369 2687 2733 
Q 2419 3097 1959 3097 
z
M 1959 3584 
Q 2709 3584 3137 3096 
Q 3566 2609 3566 1747 
Q 3566 888 3137 398 
Q 2709 -91 1959 -91 
Q 1206 -91 779 398 
Q 353 888 353 1747 
Q 353 2609 779 3096 
Q 1206 3584 1959 3584 
z
" transform="scale(0.015625)"/>
      <path id="DejaVuSans-63" d="M 3122 3366 
L 3122 2828 
Q 2878 2963 2633 3030 
Q 2388 3097 2138 3097 
Q 1578 3097 1268 2742 
Q 959 2388 959 1747 
Q 959 1106 1268 751 
Q 1578 397 2138 397 
Q 2388 397 2633 464 
Q 2878 531 3122 666 
L 3122 134 
Q 2881 22 2623 -34 
Q 2366 -91 2075 -91 
Q 1284 -91 818 406 
Q 353 903 353 1747 
Q 353 2603 823 3093 
Q 1294 3584 2113 3584 
Q 2378 3584 2631 3529 
Q 2884 3475 3122 3366 
z
" transform="scale(0.015625)"/>
      <path id="DejaVuSans-61" d="M 2194 1759 
Q 1497 1759 1228 1600 
Q 959 1441 959 1056 
Q 959 750 1161 570 
Q 1363 391 1709 391 
Q 2188 391 2477 730 
Q 2766 1069 2766 1631 
L 2766 1759 
L 2194 1759 
z
M 3341 1997 
L 3341 0 
L 2766 0 
L 2766 531 
Q 2569 213 2275 61 
Q 1981 -91 1556 -91 
Q 1019 -91 701 211 
Q 384 513 384 1019 
Q 384 1609 779 1909 
Q 1175 2209 1959 2209 
L 2766 2209 
L 2766 2266 
Q 2766 2663 2505 2880 
Q 2244 3097 1772 3097 
Q 1472 3097 1187 3025 
Q 903 2953 641 2809 
L 641 3341 
Q 956 3463 1253 3523 
Q 1550 3584 1831 3584 
Q 2591 3584 2966 3190 
Q 3341 2797 3341 1997 
z
" transform="scale(0.015625)"/>
     </defs>
     <use xlink:href="#DejaVuSans-54"/>
     <use xlink:href="#DejaVuSans-75" x="45.958984"/>
     <use xlink:href="#DejaVuSans-6e" x="109.337891"/>
     <use xlink:href="#DejaVuSans-67" x="172.716797"/>
     <use xlink:href="#DejaVuSans-73" x="236.193359"/>
     <use xlink:href="#DejaVuSans-74" x="288.292969"/>
     <use xlink:href="#DejaVuSans-65" x="327.501953"/>
     <use xlink:href="#DejaVuSans-6e" x="389.025391"/>
     <use xlink:href="#DejaVuSans-20" x="452.404297"/>
     <use xlink:href="#DejaVuSans-73" x="484.191406"/>
     <use xlink:href="#DejaVuSans-70" x="536.291016"/>
     <use xlink:href="#DejaVuSans-75" x="599.767578"/>
     <use xlink:href="#DejaVuSans-74" x="663.146484"/>
     <use xlink:href="#DejaVuSans-74" x="702.355469"/>
     <use xlink:href="#DejaVuSans-65" x="741.564453"/>
     <use xlink:href="#DejaVuSans-72" x="803.087891"/>
     <use xlink:href="#DejaVuSans-69" x="844.201172"/>
     <use xlink:href="#DejaVuSans-6e" x="871.984375"/>
     <use xlink:href="#DejaVuSans-67" x="935.363281"/>
     <use xlink:href="#DejaVuSans-20" x="998.839844"/>
     <use xlink:href="#DejaVuSans-73" x="1030.626953"/>
     <use xlink:href="#DejaVuSans-6f" x="1082.726562"/>
     <use xlink:href="#DejaVuSans-75" x="1143.908203"/>
     <use xlink:href="#DejaVuSans-72" x="1207.287109"/>
     <use xlink:href="#DejaVuSans-63" x="1246.150391"/>
     <use xlink:href="#DejaVuSans-65" x="1301.130859"/>
     <use xlink:href="#DejaVuSans-20" x="1362.654297"/>
     <use xlink:href="#DejaVuSans-28" x="1394.441406"/>
     <use xlink:href="#DejaVuSans-61" x="1433.455078"/>
     <use xlink:href="#DejaVuSans-2e" x="1494.734375"/>
     <use xlink:href="#DejaVuSans-75" x="1526.521484"/>
     <use xlink:href="#DejaVuSans-2e" x="1589.900391"/>
     <use xlink:href="#DejaVuSans-29" x="1621.6875"/>
    </g>
   </g>
  </g>
  <g id="axes_3">
   <g id="patch_12">
    <path d="M 71.91 449.2008 
L 517.752 449.2008 
L 517.752 334.896565 
L 71.91 334.896565 
z
" style="fill: #ffffff"/>
   </g>
   <g id="matplotlib.axis_5">
    <g id="xtick_13">
     <g id="line2d_35">
      <g>
       <use xlink:href="#mb20c3611bf" x="71.91" y="449.2008" style="stroke: #000000; stroke-width: 0.8"/>
      </g>
     </g>
     <g id="text_14">
      <!-- 9.80 -->
      <g transform="translate(60.777187 463.799238)scale(0.1 -0.1)">
       <defs>
        <path id="DejaVuSans-39" d="M 703 97 
L 703 672 
Q 941 559 1184 500 
Q 1428 441 1663 441 
Q 2288 441 2617 861 
Q 2947 1281 2994 2138 
Q 2813 1869 2534 1725 
Q 2256 1581 1919 1581 
Q 1219 1581 811 2004 
Q 403 2428 403 3163 
Q 403 3881 828 4315 
Q 1253 4750 1959 4750 
Q 2769 4750 3195 4129 
Q 3622 3509 3622 2328 
Q 3622 1225 3098 567 
Q 2575 -91 1691 -91 
Q 1453 -91 1209 -44 
Q 966 3 703 97 
z
M 1959 2075 
Q 2384 2075 2632 2365 
Q 2881 2656 2881 3163 
Q 2881 3666 2632 3958 
Q 2384 4250 1959 4250 
Q 1534 4250 1286 3958 
Q 1038 3666 1038 3163 
Q 1038 2656 1286 2365 
Q 1534 2075 1959 2075 
z
" transform="scale(0.015625)"/>
        <path id="DejaVuSans-38" d="M 2034 2216 
Q 1584 2216 1326 1975 
Q 1069 1734 1069 1313 
Q 1069 891 1326 650 
Q 1584 409 2034 409 
Q 2484 409 2743 651 
Q 3003 894 3003 1313 
Q 3003 1734 2745 1975 
Q 2488 2216 2034 2216 
z
M 1403 2484 
Q 997 2584 770 2862 
Q 544 3141 544 3541 
Q 544 4100 942 4425 
Q 1341 4750 2034 4750 
Q 2731 4750 3128 4425 
Q 3525 4100 3525 3541 
Q 3525 3141 3298 2862 
Q 3072 2584 2669 2484 
Q 3125 2378 3379 2068 
Q 3634 1759 3634 1313 
Q 3634 634 3220 271 
Q 2806 -91 2034 -91 
Q 1263 -91 848 271 
Q 434 634 434 1313 
Q 434 1759 690 2068 
Q 947 2378 1403 2484 
z
M 1172 3481 
Q 1172 3119 1398 2916 
Q 1625 2713 2034 2713 
Q 2441 2713 2670 2916 
Q 2900 3119 2900 3481 
Q 2900 3844 2670 4047 
Q 2441 4250 2034 4250 
Q 1625 4250 1398 4047 
Q 1172 3844 1172 3481 
z
" transform="scale(0.015625)"/>
       </defs>
       <use xlink:href="#DejaVuSans-39"/>
       <use xlink:href="#DejaVuSans-2e" x="63.623047"/>
       <use xlink:href="#DejaVuSans-38" x="95.410156"/>
       <use xlink:href="#DejaVuSans-30" x="159.033203"/>
      </g>
     </g>
    </g>
    <g id="xtick_14">
     <g id="line2d_36">
      <g>
       <use xlink:href="#mb20c3611bf" x="161.0784" y="449.2008" style="stroke: #000000; stroke-width: 0.8"/>
      </g>
     </g>
     <g id="text_15">
      <!-- 9.81 -->
      <g transform="translate(149.945587 463.799238)scale(0.1 -0.1)">
       <use xlink:href="#DejaVuSans-39"/>
       <use xlink:href="#DejaVuSans-2e" x="63.623047"/>
       <use xlink:href="#DejaVuSans-38" x="95.410156"/>
       <use xlink:href="#DejaVuSans-31" x="159.033203"/>
      </g>
     </g>
    </g>
    <g id="xtick_15">
     <g id="line2d_37">
      <g>
       <use xlink:href="#mb20c3611bf" x="250.2468" y="449.2008" style="stroke: #000000; stroke-width: 0.8"/>
      </g>
     </g>
     <g id="text_16">
      <!-- 9.82 -->
      <g transform="translate(239.113987 463.799238)scale(0.1 -0.1)">
       <use xlink:href="#DejaVuSans-39"/>
       <use xlink:href="#DejaVuSans-2e" x="63.623047"/>
       <use xlink:href="#DejaVuSans-38" x="95.410156"/>
       <use xlink:href="#DejaVuSans-32" x="159.033203"/>
      </g>
     </g>
    </g>
    <g id="xtick_16">
     <g id="line2d_38">
      <g>
       <use xlink:href="#mb20c3611bf" x="339.4152" y="449.2008" style="stroke: #000000; stroke-width: 0.8"/>
      </g>
     </g>
     <g id="text_17">
      <!-- 9.83 -->
      <g transform="translate(328.282388 463.799238)scale(0.1 -0.1)">
       <defs>
        <path id="DejaVuSans-33" d="M 2597 2516 
Q 3050 2419 3304 2112 
Q 3559 1806 3559 1356 
Q 3559 666 3084 287 
Q 2609 -91 1734 -91 
Q 1441 -91 1130 -33 
Q 819 25 488 141 
L 488 750 
Q 750 597 1062 519 
Q 1375 441 1716 441 
Q 2309 441 2620 675 
Q 2931 909 2931 1356 
Q 2931 1769 2642 2001 
Q 2353 2234 1838 2234 
L 1294 2234 
L 1294 2753 
L 1863 2753 
Q 2328 2753 2575 2939 
Q 2822 3125 2822 3475 
Q 2822 3834 2567 4026 
Q 2313 4219 1838 4219 
Q 1578 4219 1281 4162 
Q 984 4106 628 3988 
L 628 4550 
Q 988 4650 1302 4700 
Q 1616 4750 1894 4750 
Q 2613 4750 3031 4423 
Q 3450 4097 3450 3541 
Q 3450 3153 3228 2886 
Q 3006 2619 2597 2516 
z
" transform="scale(0.015625)"/>
       </defs>
       <use xlink:href="#DejaVuSans-39"/>
       <use xlink:href="#DejaVuSans-2e" x="63.623047"/>
       <use xlink:href="#DejaVuSans-38" x="95.410156"/>
       <use xlink:href="#DejaVuSans-33" x="159.033203"/>
      </g>
     </g>
    </g>
    <g id="xtick_17">
     <g id="line2d_39">
      <g>
       <use xlink:href="#mb20c3611bf" x="428.5836" y="449.2008" style="stroke: #000000; stroke-width: 0.8"/>
      </g>
     </g>
     <g id="text_18">
      <!-- 9.84 -->
      <g transform="translate(417.450787 463.799238)scale(0.1 -0.1)">
       <defs>
        <path id="DejaVuSans-34" d="M 2419 4116 
L 825 1625 
L 2419 1625 
L 2419 4116 
z
M 2253 4666 
L 3047 4666 
L 3047 1625 
L 3713 1625 
L 3713 1100 
L 3047 1100 
L 3047 0 
L 2419 0 
L 2419 1100 
L 313 1100 
L 313 1709 
L 2253 4666 
z
" transform="scale(0.015625)"/>
       </defs>
       <use xlink:href="#DejaVuSans-39"/>
       <use xlink:href="#DejaVuSans-2e" x="63.623047"/>
       <use xlink:href="#DejaVuSans-38" x="95.410156"/>
       <use xlink:href="#DejaVuSans-34" x="159.033203"/>
      </g>
     </g>
    </g>
    <g id="xtick_18">
     <g id="line2d_40">
      <g>
       <use xlink:href="#mb20c3611bf" x="517.752" y="449.2008" style="stroke: #000000; stroke-width: 0.8"/>
      </g>
     </g>
     <g id="text_19">
      <!-- 9.85 -->
      <g transform="translate(506.619188 463.799238)scale(0.1 -0.1)">
       <use xlink:href="#DejaVuSans-39"/>
       <use xlink:href="#DejaVuSans-2e" x="63.623047"/>
       <use xlink:href="#DejaVuSans-38" x="95.410156"/>
       <use xlink:href="#DejaVuSans-35" x="159.033203"/>
      </g>
     </g>
    </g>
   </g>
   <g id="matplotlib.axis_6">
    <g id="ytick_11">
     <g id="line2d_41">
      <g>
       <use xlink:href="#m41beafad07" x="71.91" y="449.2008" style="stroke: #000000; stroke-width: 0.8"/>
      </g>
     </g>
     <g id="text_20">
      <!-- −0.5 -->
      <g transform="translate(40.627187 453.000019)scale(0.1 -0.1)">
       <defs>
        <path id="DejaVuSans-2212" d="M 678 2272 
L 4684 2272 
L 4684 1741 
L 678 1741 
L 678 2272 
z
" transform="scale(0.015625)"/>
       </defs>
       <use xlink:href="#DejaVuSans-2212"/>
       <use xlink:href="#DejaVuSans-30" x="83.789062"/>
       <use xlink:href="#DejaVuSans-2e" x="147.412109"/>
       <use xlink:href="#DejaVuSans-35" x="179.199219"/>
      </g>
     </g>
    </g>
    <g id="ytick_12">
     <g id="line2d_42">
      <g>
       <use xlink:href="#m41beafad07" x="71.91" y="420.624741" style="stroke: #000000; stroke-width: 0.8"/>
      </g>
     </g>
     <g id="text_21">
      <!-- 0.0 -->
      <g transform="translate(49.006875 424.42396)scale(0.1 -0.1)">
       <use xlink:href="#DejaVuSans-30"/>
       <use xlink:href="#DejaVuSans-2e" x="63.623047"/>
       <use xlink:href="#DejaVuSans-30" x="95.410156"/>
      </g>
     </g>
    </g>
    <g id="ytick_13">
     <g id="line2d_43">
      <g>
       <use xlink:href="#m41beafad07" x="71.91" y="392.048682" style="stroke: #000000; stroke-width: 0.8"/>
      </g>
     </g>
     <g id="text_22">
      <!-- 0.5 -->
      <g transform="translate(49.006875 395.847901)scale(0.1 -0.1)">
       <use xlink:href="#DejaVuSans-30"/>
       <use xlink:href="#DejaVuSans-2e" x="63.623047"/>
       <use xlink:href="#DejaVuSans-35" x="95.410156"/>
      </g>
     </g>
    </g>
    <g id="ytick_14">
     <g id="line2d_44">
      <g>
       <use xlink:href="#m41beafad07" x="71.91" y="363.472624" style="stroke: #000000; stroke-width: 0.8"/>
      </g>
     </g>
     <g id="text_23">
      <!-- 1.0 -->
      <g transform="translate(49.006875 367.271842)scale(0.1 -0.1)">
       <use xlink:href="#DejaVuSans-31"/>
       <use xlink:href="#DejaVuSans-2e" x="63.623047"/>
       <use xlink:href="#DejaVuSans-30" x="95.410156"/>
      </g>
     </g>
    </g>
    <g id="ytick_15">
     <g id="line2d_45">
      <g>
       <use xlink:href="#m41beafad07" x="71.91" y="334.896565" style="stroke: #000000; stroke-width: 0.8"/>
      </g>
     </g>
     <g id="text_24">
      <!-- 1.5 -->
      <g transform="translate(49.006875 338.695783)scale(0.1 -0.1)">
       <use xlink:href="#DejaVuSans-31"/>
       <use xlink:href="#DejaVuSans-2e" x="63.623047"/>
       <use xlink:href="#DejaVuSans-35" x="95.410156"/>
      </g>
     </g>
    </g>
    <g id="text_25">
     <!-- 1e19 -->
     <g transform="translate(71.91 331.896565)scale(0.1 -0.1)">
      <use xlink:href="#DejaVuSans-31"/>
      <use xlink:href="#DejaVuSans-65" x="63.623047"/>
      <use xlink:href="#DejaVuSans-31" x="125.146484"/>
      <use xlink:href="#DejaVuSans-39" x="188.769531"/>
     </g>
    </g>
   </g>
   <g id="line2d_46">
    <path d="M 71.461001 408.572783 
L 72.481453 408.300749 
L 74.42031 408.495522 
L 80.372943 408.64116 
L 96.053879 408.998484 
L 98.945158 409.089636 
L 99.863564 408.189702 
L 100.611895 403.154843 
L 101.258181 397.65873 
L 102.074542 394.815497 
L 102.686813 393.624293 
L 103.163023 393.08623 
L 103.707264 392.658464 
L 104.829761 392.288817 
L 105.952257 392.255537 
L 106.462483 392.748823 
L 106.972709 394.251059 
L 107.550964 396.579346 
L 109.659897 406.936632 
L 110.782394 410.972948 
L 111.326634 411.671236 
L 111.938905 410.449895 
L 112.551176 406.21374 
L 113.197462 403.922916 
L 113.877763 402.735482 
L 114.626094 402.205092 
L 115.40844 402.272224 
L 116.224801 402.602182 
L 117.959568 403.46608 
L 121.633193 404.348256 
L 124.524472 404.871418 
L 129.524684 405.751705 
L 136.701858 406.462054 
L 156.430584 407.193133 
L 161.804961 407.312038 
L 182.350049 408.145101 
L 190.513659 408.423088 
L 202.589001 408.816117 
L 209.562085 409.022658 
L 219.494478 409.226847 
L 226.399532 409.338428 
L 231.297699 409.477956 
L 232.080045 404.949486 
L 232.726331 399.772959 
L 233.270571 396.817801 
L 234.325038 394.876602 
L 234.733218 394.38692 
L 235.311474 393.973224 
L 235.855715 393.741674 
L 236.910181 393.537499 
L 237.454422 393.527093 
L 237.998663 393.828848 
L 238.508888 394.914251 
L 239.59737 399.616789 
L 241.196077 407.622723 
L 242.080468 411.36497 
L 242.318573 411.977418 
L 242.862814 412.860568 
L 243.44107 411.845563 
L 244.053341 408.022496 
L 244.699626 405.173908 
L 245.379927 403.879059 
L 246.128258 403.316986 
L 246.910604 403.240059 
L 250.312109 404.609184 
L 253.101343 405.167165 
L 255.992621 405.64038 
L 263.033736 406.677966 
L 267.149556 407.04166 
L 276.503694 407.476747 
L 298.409383 408.120362 
L 339.125392 409.479097 
L 340.145843 409.278772 
L 342.118716 409.453308 
L 349.125815 409.646252 
L 357.969727 409.810115 
L 358.956163 410.212707 
L 359.874569 408.456211 
L 361.235171 398.91704 
L 362.119562 396.781967 
L 362.629788 396.058269 
L 363.105999 395.59393 
L 363.650239 395.240125 
L 364.772736 394.946775 
L 365.316977 394.870337 
L 365.895232 394.91471 
L 366.405458 395.410294 
L 366.915684 396.869933 
L 368.004165 401.500585 
L 369.636887 409.40203 
L 370.181128 411.643146 
L 370.725369 413.175156 
L 371.33764 413.353664 
L 371.915895 411.473143 
L 372.528166 406.480612 
L 373.888768 404.379672 
L 374.671114 404.06723 
L 375.419445 404.157829 
L 378.922995 405.468837 
L 380.759807 405.847051 
L 384.637522 406.419437 
L 391.678637 407.393735 
L 397.83536 407.770666 
L 412.427814 408.248694 
L 475.695798 410.130166 
L 476.71625 410.584552 
L 477.634656 408.527097 
L 478.348972 404.090957 
L 478.995258 399.282563 
L 479.403438 398.626785 
L 479.539498 398.187005 
L 480.9001 396.522283 
L 481.444341 396.188359 
L 482.906988 395.851165 
L 483.689334 395.835064 
L 484.199559 396.28939 
L 484.7438 397.734005 
L 485.798267 402.6168 
L 486.886748 407.915738 
L 487.396974 410.548686 
L 487.975229 412.833309 
L 488.51947 414.222378 
L 489.131741 414.162408 
L 489.709997 411.901344 
L 490.356283 407.291846 
L 491.002568 406.089049 
L 491.682869 405.250171 
L 492.465215 404.928015 
L 493.281577 405.078352 
L 495.832705 406.033405 
L 498.587924 406.518627 
L 501.479202 406.848807 
L 507.46585 407.714961 
L 513.656589 408.185996 
L 517.806424 408.33139 
L 517.806424 408.33139 
" clip-path="url(#p7d084a6462)" style="fill: none; stroke: #0000ff; stroke-linecap: square"/>
   </g>
   <g id="line2d_47">
    <path d="M 71.358956 409.040957 
L 71.937212 401.009181 
L 72.277362 402.17286 
L 72.583498 402.798007 
L 73.603949 404.376898 
L 74.658416 405.249866 
L 75.576822 405.680885 
L 76.869394 406.088622 
L 81.83559 407.16379 
L 84.998989 407.669219 
L 87.550118 408.049437 
L 93.264645 408.482311 
L 96.972285 408.804007 
L 102.142572 409.200712 
L 108.571416 409.482905 
L 116.803057 409.816529 
L 123.674096 409.812304 
L 125.714998 409.906647 
L 136.769888 410.10754 
L 140.579573 410.182434 
L 142.586461 410.23781 
L 158.301412 410.241327 
L 161.736931 410.430341 
L 161.975037 410.561861 
L 162.213142 410.220111 
L 162.757383 408.517839 
L 163.335638 405.961575 
L 164.35609 402.657041 
L 164.56018 402.592153 
L 164.730255 402.334562 
L 164.90033 402.354947 
L 165.104421 402.127066 
L 168.029715 401.108955 
L 168.40388 401.229631 
L 168.710016 401.538086 
L 168.846076 401.654721 
L 169.900542 403.608488 
L 170.682888 405.520027 
L 172.995911 410.583457 
L 173.302047 410.661559 
L 173.608182 410.607809 
L 173.914317 410.227744 
L 174.254468 409.396021 
L 174.730679 407.41602 
L 175.172874 403.889231 
L 175.853175 402.351714 
L 176.15931 401.881406 
L 176.499461 401.706747 
L 176.873626 401.779673 
L 177.145747 401.976429 
L 177.962108 402.854987 
L 179.186649 404.333737 
L 179.832935 405.040149 
L 181.363612 406.46918 
L 182.724214 407.339586 
L 184.118831 407.90094 
L 186.465869 408.577476 
L 187.180185 408.697677 
L 189.459193 408.926042 
L 195.309781 409.436866 
L 198.099015 409.598999 
L 213.77995 409.710683 
L 216.229034 409.747357 
L 221.875531 409.900155 
L 231.025578 409.791559 
L 237.080256 409.794602 
L 242.964859 409.940684 
L 269.972805 410.545742 
L 272.115753 410.660687 
L 272.557948 411.00057 
L 272.830069 410.790192 
L 273.170219 410.010514 
L 273.5784 408.720806 
L 273.98658 407.13911 
L 274.870971 404.231126 
L 275.245137 403.643909 
L 275.619302 403.154659 
L 275.789378 403.155487 
L 276.537709 402.484082 
L 278.782702 401.33991 
L 278.986792 401.362018 
L 279.633078 402.06136 
L 283.170643 409.29907 
L 283.510793 410.00216 
L 283.987004 410.41234 
L 284.361169 410.36327 
L 284.70132 409.845911 
L 285.007455 408.982489 
L 285.517681 406.499428 
L 285.857831 404.292508 
L 286.027906 404.181249 
L 286.674192 403.034882 
L 287.218433 402.929984 
L 288.068809 403.510864 
L 289.871606 405.297816 
L 291.130163 406.47157 
L 292.286675 407.316821 
L 293.205081 407.840576 
L 294.871818 408.508829 
L 297.388931 409.116626 
L 299.055669 409.35581 
L 307.28731 410.113505 
L 308.341776 410.115026 
L 315.586981 410.27782 
L 328.988908 410.244125 
L 338.989332 410.328382 
L 339.227437 410.322312 
L 339.431527 410.022765 
L 339.805693 410.196739 
L 342.594926 410.15482 
L 360.929036 410.455726 
L 362.527743 410.485448 
L 368.344316 410.639525 
L 368.378331 410.641591 
L 375.11331 410.796143 
L 381.133973 410.98448 
L 401.440955 411.32024 
L 401.88315 411.583925 
L 402.223301 411.111078 
L 402.223301 411.11826 
L 402.529436 410.227391 
L 402.529436 410.306491 
L 403.992083 404.83339 
L 404.230188 404.589247 
L 404.672384 403.865226 
L 404.910489 403.839335 
L 405.080564 403.651835 
L 405.284655 403.607038 
L 405.624805 403.253885 
L 406.373136 402.918295 
L 407.835783 402.266768 
L 408.482069 402.471349 
L 408.95828 403.050196 
L 409.842671 404.788647 
L 411.271303 407.957874 
L 411.407363 408.148201 
L 411.883573 409.136326 
L 412.699935 410.770667 
L 412.835995 411.146207 
L 413.312205 411.439419 
L 413.788416 411.182108 
L 414.094551 410.639049 
L 414.298642 410.05129 
L 414.910912 407.230042 
L 415.149018 405.155053 
L 415.251063 405.226837 
L 415.557198 404.705564 
L 415.965379 404.041994 
L 416.373559 403.895017 
L 416.71371 403.985295 
L 417.291966 404.40319 
L 418.278402 405.349479 
L 419.673019 406.76423 
L 420.591425 407.560692 
L 423.176568 408.926135 
L 425.115426 409.42696 
L 429.469352 410.017653 
L 431.88442 410.303778 
L 434.333503 410.523787 
L 441.952873 410.667893 
L 445.864604 410.604661 
L 459.946832 410.711467 
L 462.804096 410.668559 
L 465.695375 410.654733 
L 467.226052 410.676673 
L 471.103767 410.728066 
L 474.165121 410.735151 
L 486.104402 410.872834 
L 517.466274 411.480238 
L 517.772409 411.477953 
L 517.772409 411.477953 
" clip-path="url(#p7d084a6462)" style="fill: none; stroke: #ff4500; stroke-linecap: square"/>
   </g>
   <g id="line2d_48">
    <path d="M 70.814716 409.123648 
L 71.971227 407.418048 
L 73.161754 408.957416 
L 76.631288 409.055422 
L 88.196404 409.329855 
L 95.101458 409.448419 
L 96.257969 412.241526 
L 97.07433 408.742894 
L 98.332887 399.184749 
L 99.455384 395.648805 
L 100.135684 394.505539 
L 100.57788 394.096028 
L 101.122121 394.052914 
L 101.768407 394.114535 
L 102.380677 394.988323 
L 103.026963 397.659963 
L 103.571204 401.555969 
L 105.408016 421.353472 
L 106.564528 434.202657 
L 107.210814 438.024379 
L 107.687025 436.29326 
L 108.33331 430.972133 
L 108.809521 423.674384 
L 109.523837 407.257966 
L 110.850424 401.746848 
L 111.63277 399.553787 
L 112.313071 398.433771 
L 113.163447 398.116837 
L 113.945793 398.420335 
L 115.714575 399.399155 
L 119.150095 400.280027 
L 130.885285 404.207695 
L 135.749437 405.228606 
L 139.423062 405.791966 
L 144.389258 406.314943 
L 149.38947 406.748883 
L 158.165352 407.24832 
L 176.907641 407.88645 
L 184.254891 408.1896 
L 199.833782 408.871485 
L 237.318362 409.813508 
L 251.1965 410.088387 
L 252.284982 412.385059 
L 253.101343 408.154106 
L 254.189824 400.508673 
L 254.83611 398.137591 
L 255.720501 396.44894 
L 256.332772 395.866199 
L 256.877013 395.580002 
L 257.353223 395.466531 
L 257.897464 395.647713 
L 258.54375 396.999118 
L 259.087991 400.008994 
L 259.598216 403.638469 
L 262.59154 438.099274 
L 263.237826 439.970601 
L 263.816082 436.694191 
L 264.292292 431.847929 
L 265.652894 407.548811 
L 266.877436 402.561808 
L 267.693797 400.531723 
L 268.442128 399.711616 
L 269.258489 399.511445 
L 270.14288 399.9032 
L 270.959241 400.470519 
L 271.877648 400.755114 
L 272.659994 400.822774 
L 276.537709 401.782628 
L 283.578823 404.029673 
L 285.993891 404.833609 
L 288.374944 405.399935 
L 293.273111 406.285304 
L 298.205292 406.880152 
L 308.171701 407.728727 
L 314.430469 408.029129 
L 318.206139 408.182876 
L 323.206351 408.30495 
L 338.070925 408.753746 
L 339.261452 408.812108 
L 340.485994 408.645965 
L 345.350145 408.945584 
L 357.323441 409.477054 
L 370.283173 409.925082 
L 377.290272 410.204447 
L 395.828472 410.438561 
L 397.018999 410.469168 
L 398.17551 410.931312 
L 399.161947 411.578437 
L 400.998759 400.558241 
L 401.47497 399.170073 
L 402.359361 397.726158 
L 402.971632 397.257076 
L 403.992083 397.028489 
L 404.366248 397.196288 
L 404.774429 397.537373 
L 405.3867 399.836001 
L 405.998971 404.522799 
L 406.645256 410.763484 
L 408.414039 431.838184 
L 409.02631 438.463432 
L 409.672595 441.167772 
L 410.250851 438.142679 
L 410.727062 433.994361 
L 411.169257 427.655775 
L 411.849558 409.498696 
L 412.495844 407.366474 
L 413.0741 404.8717 
L 413.822431 402.384477 
L 414.570762 401.114832 
L 415.421138 400.646287 
L 416.203484 400.762987 
L 417.904236 401.618617 
L 420.28529 401.975548 
L 428.31284 404.152594 
L 433.074947 405.69861 
L 437.939098 406.663009 
L 444.095821 407.476613 
L 452.837688 408.229767 
L 459.062441 408.605182 
L 515.051205 410.424655 
L 518.554755 410.574 
L 518.554755 410.574 
" clip-path="url(#p7d084a6462)" style="fill: none; stroke: #8b008b; stroke-linecap: square"/>
   </g>
   <g id="patch_13">
    <path d="M 71.91 449.2008 
L 71.91 334.896565 
" style="fill: none; stroke: #000000; stroke-width: 0.8; stroke-linejoin: miter; stroke-linecap: square"/>
   </g>
   <g id="patch_14">
    <path d="M 517.752 449.2008 
L 517.752 334.896565 
" style="fill: none; stroke: #000000; stroke-width: 0.8; stroke-linejoin: miter; stroke-linecap: square"/>
   </g>
   <g id="patch_15">
    <path d="M 71.91 449.2008 
L 517.752 449.2008 
" style="fill: none; stroke: #000000; stroke-width: 0.8; stroke-linejoin: miter; stroke-linecap: square"/>
   </g>
   <g id="patch_16">
    <path d="M 71.91 334.896565 
L 517.752 334.896565 
" style="fill: none; stroke: #000000; stroke-width: 0.8; stroke-linejoin: miter; stroke-linecap: square"/>
   </g>
   <g id="text_26">
    <!-- Tungsten core boundary flux ($s^{-1}$) -->
    <g transform="translate(174.641 328.896565)scale(0.14 -0.14)">
     <defs>
      <path id="DejaVuSans-62" d="M 3116 1747 
Q 3116 2381 2855 2742 
Q 2594 3103 2138 3103 
Q 1681 3103 1420 2742 
Q 1159 2381 1159 1747 
Q 1159 1113 1420 752 
Q 1681 391 2138 391 
Q 2594 391 2855 752 
Q 3116 1113 3116 1747 
z
M 1159 2969 
Q 1341 3281 1617 3432 
Q 1894 3584 2278 3584 
Q 2916 3584 3314 3078 
Q 3713 2572 3713 1747 
Q 3713 922 3314 415 
Q 2916 -91 2278 -91 
Q 1894 -91 1617 61 
Q 1341 213 1159 525 
L 1159 0 
L 581 0 
L 581 4863 
L 1159 4863 
L 1159 2969 
z
" transform="scale(0.015625)"/>
      <path id="DejaVuSans-64" d="M 2906 2969 
L 2906 4863 
L 3481 4863 
L 3481 0 
L 2906 0 
L 2906 525 
Q 2725 213 2448 61 
Q 2172 -91 1784 -91 
Q 1150 -91 751 415 
Q 353 922 353 1747 
Q 353 2572 751 3078 
Q 1150 3584 1784 3584 
Q 2172 3584 2448 3432 
Q 2725 3281 2906 2969 
z
M 947 1747 
Q 947 1113 1208 752 
Q 1469 391 1925 391 
Q 2381 391 2643 752 
Q 2906 1113 2906 1747 
Q 2906 2381 2643 2742 
Q 2381 3103 1925 3103 
Q 1469 3103 1208 2742 
Q 947 2381 947 1747 
z
" transform="scale(0.015625)"/>
      <path id="DejaVuSans-79" d="M 2059 -325 
Q 1816 -950 1584 -1140 
Q 1353 -1331 966 -1331 
L 506 -1331 
L 506 -850 
L 844 -850 
Q 1081 -850 1212 -737 
Q 1344 -625 1503 -206 
L 1606 56 
L 191 3500 
L 800 3500 
L 1894 763 
L 2988 3500 
L 3597 3500 
L 2059 -325 
z
" transform="scale(0.015625)"/>
      <path id="DejaVuSans-66" d="M 2375 4863 
L 2375 4384 
L 1825 4384 
Q 1516 4384 1395 4259 
Q 1275 4134 1275 3809 
L 1275 3500 
L 2222 3500 
L 2222 3053 
L 1275 3053 
L 1275 0 
L 697 0 
L 697 3053 
L 147 3053 
L 147 3500 
L 697 3500 
L 697 3744 
Q 697 4328 969 4595 
Q 1241 4863 1831 4863 
L 2375 4863 
z
" transform="scale(0.015625)"/>
      <path id="DejaVuSans-6c" d="M 603 4863 
L 1178 4863 
L 1178 0 
L 603 0 
L 603 4863 
z
" transform="scale(0.015625)"/>
      <path id="DejaVuSans-78" d="M 3513 3500 
L 2247 1797 
L 3578 0 
L 2900 0 
L 1881 1375 
L 863 0 
L 184 0 
L 1544 1831 
L 300 3500 
L 978 3500 
L 1906 2253 
L 2834 3500 
L 3513 3500 
z
" transform="scale(0.015625)"/>
     </defs>
     <use xlink:href="#DejaVuSans-54" transform="translate(0 0.684375)"/>
     <use xlink:href="#DejaVuSans-75" transform="translate(61.083984 0.684375)"/>
     <use xlink:href="#DejaVuSans-6e" transform="translate(124.462891 0.684375)"/>
     <use xlink:href="#DejaVuSans-67" transform="translate(187.841797 0.684375)"/>
     <use xlink:href="#DejaVuSans-73" transform="translate(251.318359 0.684375)"/>
     <use xlink:href="#DejaVuSans-74" transform="translate(303.417969 0.684375)"/>
     <use xlink:href="#DejaVuSans-65" transform="translate(342.626953 0.684375)"/>
     <use xlink:href="#DejaVuSans-6e" transform="translate(404.150391 0.684375)"/>
     <use xlink:href="#DejaVuSans-20" transform="translate(467.529297 0.684375)"/>
     <use xlink:href="#DejaVuSans-63" transform="translate(499.316406 0.684375)"/>
     <use xlink:href="#DejaVuSans-6f" transform="translate(554.296875 0.684375)"/>
     <use xlink:href="#DejaVuSans-72" transform="translate(615.478516 0.684375)"/>
     <use xlink:href="#DejaVuSans-65" transform="translate(656.591797 0.684375)"/>
     <use xlink:href="#DejaVuSans-20" transform="translate(718.115234 0.684375)"/>
     <use xlink:href="#DejaVuSans-62" transform="translate(749.902344 0.684375)"/>
     <use xlink:href="#DejaVuSans-6f" transform="translate(813.378906 0.684375)"/>
     <use xlink:href="#DejaVuSans-75" transform="translate(874.560547 0.684375)"/>
     <use xlink:href="#DejaVuSans-6e" transform="translate(937.939453 0.684375)"/>
     <use xlink:href="#DejaVuSans-64" transform="translate(1001.318359 0.684375)"/>
     <use xlink:href="#DejaVuSans-61" transform="translate(1064.794922 0.684375)"/>
     <use xlink:href="#DejaVuSans-72" transform="translate(1126.074219 0.684375)"/>
     <use xlink:href="#DejaVuSans-79" transform="translate(1167.1875 0.684375)"/>
     <use xlink:href="#DejaVuSans-20" transform="translate(1226.367188 0.684375)"/>
     <use xlink:href="#DejaVuSans-66" transform="translate(1258.154297 0.684375)"/>
     <use xlink:href="#DejaVuSans-6c" transform="translate(1293.359375 0.684375)"/>
     <use xlink:href="#DejaVuSans-75" transform="translate(1321.142578 0.684375)"/>
     <use xlink:href="#DejaVuSans-78" transform="translate(1384.521484 0.684375)"/>
     <use xlink:href="#DejaVuSans-20" transform="translate(1443.701172 0.684375)"/>
     <use xlink:href="#DejaVuSans-28" transform="translate(1475.488281 0.684375)"/>
     <use xlink:href="#DejaVuSans-Oblique-73" transform="translate(1514.501953 0.684375)"/>
     <use xlink:href="#DejaVuSans-2212" transform="translate(1571.251458 38.965625)scale(0.7)"/>
     <use xlink:href="#DejaVuSans-31" transform="translate(1629.903802 38.965625)scale(0.7)"/>
     <use xlink:href="#DejaVuSans-29" transform="translate(1677.17431 0.684375)"/>
    </g>
   </g>
  </g>
 </g>
 <defs>
  <clipPath id="p49576403b9">
   <rect x="71.91" y="60.5664" width="445.842" height="114.304235"/>
  </clipPath>
  <clipPath id="p2a16dfc33e">
   <rect x="71.91" y="197.731482" width="445.842" height="114.304235"/>
  </clipPath>
  <clipPath id="p7d084a6462">
   <rect x="71.91" y="334.896565" width="445.842" height="114.304235"/>
  </clipPath>
 </defs>
</svg>
